<svg width="71" height="71" viewBox="0 0 71 71" fill="none" xmlns="http://www.w3.org/2000/svg">
<path fill-rule="evenodd" clip-rule="evenodd" d="M35.8 61.3665C42.6072 61.3665 49.1356 58.6624 53.949 53.8489C58.7625 49.0355 61.4666 42.5071 61.4666 35.6999C61.4666 28.8926 58.7625 22.3642 53.949 17.5508C49.1356 12.7374 42.6072 10.0332 35.8 10.0332C28.9927 10.0332 22.4643 12.7374 17.6509 17.5508C12.8375 22.3642 10.1333 28.8926 10.1333 35.6999C10.1333 42.5071 12.8375 49.0355 17.6509 53.8489C22.4643 58.6624 28.9927 61.3665 35.8 61.3665ZM35.8 21.6999C36.4188 21.6999 37.0123 21.9457 37.4499 22.3833C37.8875 22.8209 38.1333 23.4144 38.1333 24.0332V33.3665H47.4666C48.0855 33.3665 48.679 33.6124 49.1166 34.05C49.5541 34.4875 49.8 35.081 49.8 35.6999C49.8 36.3187 49.5541 36.9122 49.1166 37.3498C48.679 37.7874 48.0855 38.0332 47.4666 38.0332H38.1333V47.3665C38.1333 47.9854 37.8875 48.5789 37.4499 49.0165C37.0123 49.454 36.4188 49.6999 35.8 49.6999C35.1811 49.6999 34.5876 49.454 34.1501 49.0165C33.7125 48.5789 33.4666 47.9854 33.4666 47.3665V38.0332H24.1333C23.5145 38.0332 22.921 37.7874 22.4834 37.3498C22.0458 36.9122 21.8 36.3187 21.8 35.6999C21.8 35.081 22.0458 34.4875 22.4834 34.05C22.921 33.6124 23.5145 33.3665 24.1333 33.3665H33.4666V24.0332C33.4666 23.4144 33.7125 22.8209 34.1501 22.3833C34.5876 21.9457 35.1811 21.6999 35.8 21.6999Z" fill="white"/>
</svg>
