<svg width="70" height="71" viewBox="0 0 70 71" fill="none" xmlns="http://www.w3.org/2000/svg">
<path d="M11.6665 24.9652C11.6665 21.6235 12.994 18.4186 15.357 16.0557C17.7199 13.6927 20.9248 12.3652 24.2665 12.3652C25.1065 12.3652 25.8998 12.8786 26.2032 13.6486L30.7065 24.4752C30.9228 25.0002 30.9402 25.5861 30.7555 26.123C30.5708 26.6599 30.1966 27.1111 29.7032 27.3919L23.3332 31.0319C24.0154 35.1164 25.9561 38.8859 28.8843 41.8141C31.8125 44.7423 35.582 46.683 39.6665 47.3652L42.2798 42.1386C42.5264 41.6432 42.941 41.2515 43.4496 41.0336C43.9582 40.8156 44.5277 40.7855 45.0565 40.9486L56.8632 44.5886C57.7498 44.8452 58.3332 45.6619 58.3332 46.5719C58.3332 53.4319 52.7332 59.0319 45.8732 59.0319H45.0098C26.5765 59.0319 11.6665 44.0986 11.6665 25.6886V24.9652ZM37.3332 14.6986C37.3332 14.0797 37.579 13.4862 38.0166 13.0487C38.4542 12.6111 39.0477 12.3652 39.6665 12.3652C44.6172 12.3652 49.3652 14.3319 52.8658 17.8326C56.3665 21.3333 58.3332 26.0812 58.3332 31.0319C58.3332 31.6507 58.0873 32.2442 57.6498 32.6818C57.2122 33.1194 56.6187 33.3652 55.9998 33.3652C55.381 33.3652 54.7875 33.1194 54.3499 32.6818C53.9123 32.2442 53.6665 31.6507 53.6665 31.0319C53.6665 27.3189 52.1915 23.7579 49.566 21.1324C46.9405 18.5069 43.3795 17.0319 39.6665 17.0319C39.0477 17.0319 38.4542 16.7861 38.0166 16.3485C37.579 15.9109 37.3332 15.3174 37.3332 14.6986Z" fill="white"/>
<path d="M37.333 24.0326C37.333 23.4137 37.5788 22.8202 38.0164 22.3826C38.454 21.9451 39.0475 21.6992 39.6663 21.6992C42.1417 21.6992 44.5157 22.6825 46.266 24.4329C48.0163 26.1832 48.9997 28.5572 48.9997 31.0326C48.9997 31.6514 48.7538 32.2449 48.3163 32.6825C47.8787 33.1201 47.2852 33.3659 46.6663 33.3659C46.0475 33.3659 45.454 33.1201 45.0164 32.6825C44.5788 32.2449 44.333 31.6514 44.333 31.0326C44.333 29.7949 43.8413 28.6079 42.9662 27.7327C42.091 26.8576 40.904 26.3659 39.6663 26.3659C39.0475 26.3659 38.454 26.1201 38.0164 25.6825C37.5788 25.2449 37.333 24.6514 37.333 24.0326Z" fill="white"/>
</svg>
