<svg width="70" height="70" viewBox="0 0 70 70" fill="none" xmlns="http://www.w3.org/2000/svg">
<path d="M55.4093 16.3515C51.5461 14.5735 47.4677 13.3121 43.2784 12.5996C42.7051 13.6298 42.1864 14.6898 41.7245 15.775C37.2621 15.099 32.7241 15.099 28.2616 15.775C27.7994 14.6899 27.2807 13.6299 26.7077 12.5996C22.5157 13.3182 18.4347 14.5825 14.5676 16.3608C6.89038 27.7794 4.80921 38.9143 5.84979 49.8911C10.3457 53.2304 15.378 55.7701 20.7278 57.3996C21.9324 55.7709 22.9984 54.043 23.9143 52.2343C22.1746 51.5811 20.4955 50.7752 18.8964 49.826C19.3173 49.5192 19.7289 49.203 20.1266 48.8962C24.7796 51.0959 29.8581 52.2365 35 52.2365C40.1419 52.2365 45.2204 51.0959 49.8734 48.8962C50.2758 49.2263 50.6874 49.5424 51.1036 49.826C49.5014 50.7768 47.8192 51.5842 46.0764 52.239C46.9912 54.0468 48.0572 55.7732 49.2629 57.3996C54.6173 55.7766 59.6534 53.2382 64.1502 49.8957C65.3711 37.1662 62.0644 26.1335 55.4093 16.3515ZM25.2324 43.1404C22.3326 43.1404 19.937 40.495 19.937 37.2405C19.937 33.9861 22.2494 31.3174 25.2231 31.3174C28.1969 31.3174 30.574 33.9861 30.5232 37.2405C30.4723 40.495 28.1876 43.1404 25.2324 43.1404ZM44.7676 43.1404C41.8632 43.1404 39.4768 40.495 39.4768 37.2405C39.4768 33.9861 41.7892 31.3174 44.7676 31.3174C47.746 31.3174 50.1046 33.9861 50.0538 37.2405C50.0029 40.495 47.7229 43.1404 44.7676 43.1404Z" fill="white"/>
</svg>
