<svg width="71" height="70" viewBox="0 0 71 70" fill="none" xmlns="http://www.w3.org/2000/svg">
<path d="M35.7004 39.6673C36.938 39.6673 38.125 39.1757 39.0002 38.3005C39.8754 37.4253 40.367 36.2383 40.367 35.0007C40.367 33.763 39.8754 32.576 39.0002 31.7008C38.125 30.8257 36.938 30.334 35.7004 30.334C34.4627 30.334 33.2757 30.8257 32.4005 31.7008C31.5254 32.576 31.0337 33.763 31.0337 35.0007C31.0337 36.2383 31.5254 37.4253 32.4005 38.3005C33.2757 39.1757 34.4627 39.6673 35.7004 39.6673Z" fill="white"/>
<path fill-rule="evenodd" clip-rule="evenodd" d="M61.367 35.0007C61.367 41.8079 58.6629 48.3363 53.8494 53.1497C49.036 57.9632 42.5076 60.6673 35.7004 60.6673C28.8931 60.6673 22.3647 57.9632 17.5513 53.1497C12.7379 48.3363 10.0337 41.8079 10.0337 35.0007C10.0337 28.1934 12.7379 21.665 17.5513 16.8516C22.3647 12.0381 28.8931 9.33398 35.7004 9.33398C42.5076 9.33398 49.036 12.0381 53.8494 16.8516C58.6629 21.665 61.367 28.1934 61.367 35.0007ZM25.7604 28.7007C25.9474 27.8081 26.3918 26.9899 27.0387 26.3471C27.6856 25.7044 28.5066 25.2652 29.4004 25.084L46.247 21.7007C46.625 21.6234 47.0163 21.6411 47.3857 21.7521C47.7552 21.8631 48.0914 22.064 48.3642 22.3368C48.637 22.6096 48.8379 22.9458 48.9489 23.3153C49.0599 23.6848 49.0776 24.076 49.0004 24.454L45.617 41.3007C45.4366 42.2049 44.9924 43.0354 44.3404 43.6874C43.6884 44.3393 42.8579 44.7836 41.9537 44.964L25.107 48.3473C24.729 48.4246 24.3378 48.4069 23.9683 48.2959C23.5988 48.1849 23.2626 47.984 22.9898 47.7112C22.717 47.4384 22.5161 47.1022 22.4051 46.7327C22.2941 46.3632 22.2764 45.972 22.3537 45.594L25.7604 28.7007Z" fill="white"/>
</svg>
