<svg width="71" height="71" viewBox="0 0 71 71" fill="none" xmlns="http://www.w3.org/2000/svg">
<path d="M19.4666 29.4997C19.9027 29.0721 20.4891 28.8327 21.0999 28.8327C21.7107 28.8327 22.2971 29.0721 22.7332 29.4997L35.0999 41.843L47.4666 29.4763C47.6775 29.2337 47.9363 29.0372 48.2268 28.8993C48.5172 28.7614 48.833 28.6851 49.1544 28.675C49.4757 28.6649 49.7957 28.7213 50.0942 28.8408C50.3928 28.9602 50.6634 29.14 50.8891 29.369C51.1148 29.5979 51.2908 29.8711 51.406 30.1713C51.5212 30.4714 51.5731 30.7922 51.5584 31.1134C51.5438 31.4346 51.4629 31.7493 51.3209 32.0377C51.1789 32.3262 50.9789 32.5822 50.7332 32.7897L36.7332 46.7897C36.2971 47.2172 35.7107 47.4567 35.0999 47.4567C34.4891 47.4567 33.9027 47.2172 33.4666 46.7897L19.4666 32.7897C19.2479 32.5727 19.0743 32.3147 18.9558 32.0303C18.8374 31.746 18.7764 31.441 18.7764 31.133C18.7764 30.825 18.8374 30.52 18.9558 30.2356C19.0743 29.9513 19.2479 29.6932 19.4666 29.4763V29.4997Z" fill="white"/>
</svg>
