<svg width="71" height="71" viewBox="0 0 71 71" fill="none" xmlns="http://www.w3.org/2000/svg">
<path fill-rule="evenodd" clip-rule="evenodd" d="M21.7 12.3652H49.7C52.1754 12.3652 54.5494 13.3486 56.2997 15.0989C58.05 16.8492 59.0334 19.2232 59.0334 21.6986V39.1986C59.0334 39.508 58.9104 39.8047 58.6917 40.0235C58.4729 40.2423 58.1761 40.3652 57.8667 40.3652H52.0334C48.9392 40.3652 45.9717 41.5944 43.7838 43.7823C41.5959 45.9702 40.3667 48.9377 40.3667 52.0319V57.8652C40.3667 58.1747 40.2438 58.4714 40.025 58.6902C39.8062 58.909 39.5095 59.0319 39.2 59.0319H21.7C19.2247 59.0319 16.8507 58.0486 15.1004 56.2982C13.35 54.5479 12.3667 52.1739 12.3667 49.6986V21.6986C12.3667 19.2232 13.35 16.8492 15.1004 15.0989C16.8507 13.3486 19.2247 12.3652 21.7 12.3652ZM22.8667 31.0319C23.795 31.0319 24.6852 30.6632 25.3416 30.0068C25.998 29.3504 26.3667 28.4602 26.3667 27.5319C26.3667 26.6036 25.998 25.7134 25.3416 25.057C24.6852 24.4006 23.795 24.0319 22.8667 24.0319C21.9384 24.0319 21.0482 24.4006 20.3918 25.057C19.7354 25.7134 19.3667 26.6036 19.3667 27.5319C19.3667 28.4602 19.7354 29.3504 20.3918 30.0068C21.0482 30.6632 21.9384 31.0319 22.8667 31.0319ZM52.0334 27.5319C52.0334 28.4602 51.6646 29.3504 51.0082 30.0068C50.3519 30.6632 49.4616 31.0319 48.5334 31.0319C47.6051 31.0319 46.7149 30.6632 46.0585 30.0068C45.4021 29.3504 45.0334 28.4602 45.0334 27.5319C45.0334 26.6036 45.4021 25.7134 46.0585 25.057C46.7149 24.4006 47.6051 24.0319 48.5334 24.0319C49.4616 24.0319 50.3519 24.4006 51.0082 25.057C51.6646 25.7134 52.0334 26.6036 52.0334 27.5319ZM28.91 34.3919C28.5635 33.8783 28.0271 33.5233 27.4188 33.4052C26.8106 33.287 26.1803 33.4154 25.6667 33.7619C25.1531 34.1084 24.7981 34.6448 24.68 35.2531C24.5618 35.8613 24.6901 36.4916 25.0367 37.0052C26.2098 38.757 27.7963 40.1928 29.6561 41.1857C31.516 42.1786 33.5918 42.698 35.7 42.698C37.8083 42.698 39.8841 42.1786 41.7439 41.1857C43.6037 40.1928 45.1903 38.757 46.3634 37.0052C46.535 36.7509 46.6548 36.4653 46.716 36.1646C46.7772 35.864 46.7786 35.5543 46.7201 35.2531C46.6616 34.9519 46.5443 34.6652 46.375 34.4094C46.2057 34.1535 45.9877 33.9335 45.7334 33.7619C45.479 33.5903 45.1934 33.4705 44.8928 33.4093C44.5921 33.3481 44.2824 33.3467 43.9812 33.4052C43.68 33.4637 43.3934 33.5809 43.1375 33.7502C42.8816 33.9195 42.6616 34.1376 42.49 34.3919C41.7439 35.5084 40.7339 36.4237 39.5495 37.0567C38.3651 37.6897 37.0429 38.0209 35.7 38.0209C34.3571 38.0209 33.0349 37.6897 31.8506 37.0567C30.6662 36.4237 29.6562 35.5084 28.91 34.3919Z" fill="white"/>
<path d="M58.2403 45.0332C58.3103 45.0332 58.357 45.1032 58.3336 45.1732C57.9932 45.8825 57.5357 46.5293 56.9803 47.0865L47.087 56.9799C46.5298 57.5353 45.8829 57.9928 45.1736 58.3332C45.1585 58.3422 45.1412 58.3467 45.1236 58.3462C45.106 58.3457 45.0889 58.3403 45.0743 58.3306C45.0596 58.3208 45.0481 58.3071 45.0409 58.2911C45.0337 58.275 45.0312 58.2573 45.0336 58.2399V52.0332C45.0336 50.1767 45.7711 48.3962 47.0839 47.0835C48.3966 45.7707 50.1771 45.0332 52.0336 45.0332H58.2403Z" fill="white"/>
</svg>
