<svg width="71" height="71" viewBox="0 0 71 71" fill="none" xmlns="http://www.w3.org/2000/svg">
<path d="M24.2331 10.1348C24.8519 10.1348 25.4454 10.3806 25.883 10.8182C26.3206 11.2558 26.5664 11.8493 26.5664 12.4681V14.2181C26.5664 14.5448 26.8231 14.8014 27.1497 14.8014H44.6497C44.9764 14.8014 45.2331 14.5448 45.2331 14.2181V12.4681C45.2331 11.8493 45.4789 11.2558 45.9165 10.8182C46.3541 10.3806 46.9476 10.1348 47.5664 10.1348C48.1852 10.1348 48.7787 10.3806 49.2163 10.8182C49.6539 11.2558 49.8997 11.8493 49.8997 12.4681V14.2181C49.8997 14.5448 50.1564 14.8014 50.4831 14.8014H52.2331C54.0896 14.8014 55.8701 15.5389 57.1828 16.8517C58.4956 18.1644 59.2331 19.9449 59.2331 21.8014C59.2331 22.4203 58.9872 23.0138 58.5497 23.4513C58.1121 23.8889 57.5186 24.1348 56.8997 24.1348H14.8997C14.2809 24.1348 13.6874 23.8889 13.2498 23.4513C12.8122 23.0138 12.5664 22.4203 12.5664 21.8014C12.5664 19.9449 13.3039 18.1644 14.6167 16.8517C15.9294 15.5389 17.7099 14.8014 19.5664 14.8014H21.3164C21.6431 14.8014 21.8997 14.5448 21.8997 14.2181V12.4681C21.8997 11.8493 22.1456 11.2558 22.5832 10.8182C23.0207 10.3806 23.6142 10.1348 24.2331 10.1348Z" fill="white"/>
<path fill-rule="evenodd" clip-rule="evenodd" d="M12.5664 31.1341C12.5664 30.5153 12.8122 29.9218 13.2498 29.4842C13.6874 29.0466 14.2809 28.8008 14.8997 28.8008H56.8997C57.5186 28.8008 58.1121 29.0466 58.5497 29.4842C58.9872 29.9218 59.2331 30.5153 59.2331 31.1341V52.1341C59.2331 53.9906 58.4956 55.7711 57.1828 57.0839C55.8701 58.3966 54.0896 59.1341 52.2331 59.1341H19.5664C17.7099 59.1341 15.9294 58.3966 14.6167 57.0839C13.3039 55.7711 12.5664 53.9906 12.5664 52.1341V31.1341ZM20.7331 35.8008C20.4237 35.8008 20.1269 35.9237 19.9081 36.1425C19.6893 36.3613 19.5664 36.658 19.5664 36.9674V43.9674C19.5664 44.6208 20.0797 45.1341 20.7331 45.1341H27.7331C28.0425 45.1341 28.3392 45.0112 28.558 44.7924C28.7768 44.5736 28.8997 44.2769 28.8997 43.9674V36.9674C28.8997 36.658 28.7768 36.3613 28.558 36.1425C28.3392 35.9237 28.0425 35.8008 27.7331 35.8008H20.7331Z" fill="white"/>
</svg>
