<svg width="71" height="71" viewBox="0 0 71 71" fill="none" xmlns="http://www.w3.org/2000/svg">
<path d="M51.6235 38.0888C53.9301 39.6182 55.6747 41.8583 56.5928 44.4692C57.5108 47.08 57.552 49.9191 56.7102 52.5555C56.4768 53.3255 56.5002 54.1421 56.9435 54.7955L58.8802 57.8755C59.1062 58.2277 59.2333 58.6343 59.2481 59.0526C59.263 59.4708 59.1651 59.8854 58.9647 60.2528C58.7643 60.6202 58.4687 60.927 58.109 61.1409C57.7493 61.3549 57.3387 61.4681 56.9202 61.4688H44.0868C40.6292 61.5188 37.2927 60.1961 34.8085 57.7906C32.3243 55.3851 30.8949 52.0929 30.8335 48.6355C30.8949 45.178 32.3243 41.8859 34.8085 39.4804C37.2927 37.0749 40.6292 35.7522 44.0868 35.8021C46.8868 35.8021 49.5002 36.6421 51.6235 38.0888Z" fill="white"/>
<path d="M52.3936 33.1421C53.1402 33.5154 54.0736 33.0954 54.1202 32.2554L54.1669 31.1354C54.1669 20.8221 44.7636 12.4688 33.1669 12.4688C21.5702 12.4688 12.1669 20.8221 12.1669 31.1354C12.1669 34.6354 13.2636 37.9254 15.1536 40.7254C15.4802 41.2154 15.4336 41.8687 15.0136 42.2887L11.4902 45.8121C11.1639 46.1356 10.9404 46.5483 10.8477 46.9984C10.7551 47.4485 10.7974 47.916 10.9693 48.3421C11.1413 48.7682 11.4352 49.1341 11.8143 49.3939C12.1934 49.6536 12.6408 49.7956 13.1002 49.8021H25.0002C25.3056 49.796 25.5964 49.6704 25.8102 49.4522C26.0239 49.2341 26.1436 48.9408 26.1436 48.6354C26.1436 38.8354 34.3102 31.1354 44.0636 31.1354C47.0502 31.1354 49.8969 31.8354 52.3702 33.1421H52.3936Z" fill="white"/>
</svg>
