<svg width="71" height="70" viewBox="0 0 71 70" fill="none" xmlns="http://www.w3.org/2000/svg">
<path d="M37.9334 30.3327C40.4088 30.3327 42.7828 29.3494 44.5331 27.599C46.2834 25.8487 47.2668 23.4747 47.2668 20.9993C47.2668 18.524 46.2834 16.15 44.5331 14.3997C42.7828 12.6493 40.4088 11.666 37.9334 11.666C35.4581 11.666 33.0841 12.6493 31.3338 14.3997C29.5834 16.15 28.6001 18.524 28.6001 20.9993C28.6001 23.4747 29.5834 25.8487 31.3338 27.599C33.0841 29.3494 35.4581 30.3327 37.9334 30.3327Z" fill="white"/>
<path d="M14.6001 18.6667V16.9167C14.6001 15.3067 15.9068 14 17.5168 14C19.1268 14 20.4101 15.3067 20.6201 16.9167C21.8801 27.1833 29.6734 35 37.9334 35H40.2668C45.2175 35 49.9654 36.9667 53.4661 40.4673C56.9668 43.968 58.9334 48.716 58.9334 53.6667C58.9334 54.9043 58.4418 56.0913 57.5666 56.9665C56.6914 57.8417 55.5044 58.3333 54.2668 58.3333C54.1617 58.3327 54.0597 58.2984 53.9757 58.2353C53.8917 58.1723 53.8301 58.084 53.8001 57.9833C53.0937 56.0288 52.0514 54.2126 50.7201 52.6167C50.3701 52.15 49.7401 52.4767 49.8101 53.0133L50.3934 57.68C50.4401 58.03 50.1601 58.3333 49.8101 58.3333H28.6001C27.3624 58.3333 26.1754 57.8417 25.3003 56.9665C24.4251 56.0913 23.9334 54.9043 23.9334 53.6667V48.4867C23.9334 44.8233 22.3701 41.37 20.3634 38.29C16.6359 32.4207 14.6384 25.6195 14.6001 18.6667Z" fill="white"/>
</svg>
