<svg width="71" height="71" viewBox="0 0 71 71" fill="none" xmlns="http://www.w3.org/2000/svg">
<path fill-rule="evenodd" clip-rule="evenodd" d="M11.8667 19.4668C11.8667 17.6103 12.6042 15.8298 13.917 14.517C15.2297 13.2043 17.0102 12.4668 18.8667 12.4668H51.5334C53.3899 12.4668 55.1704 13.2043 56.4831 14.517C57.7959 15.8298 58.5334 17.6103 58.5334 19.4668V52.1335C58.5334 53.99 57.7959 55.7705 56.4831 57.0832C55.1704 58.396 53.3899 59.1335 51.5334 59.1335H18.8667C17.0102 59.1335 15.2297 58.396 13.917 57.0832C12.6042 55.7705 11.8667 53.99 11.8667 52.1335V19.4668ZM43.0167 38.4368L51.1834 49.3335C52.0467 50.5001 51.23 52.1335 49.7834 52.1335H20.7567C20.4256 52.1359 20.1006 52.0444 19.8194 51.8695C19.5382 51.6946 19.3125 51.4435 19.1683 51.1454C19.0241 50.8473 18.9675 50.5144 19.005 50.1854C19.0425 49.8564 19.1725 49.5448 19.38 49.2868L23.72 43.8735C24.048 43.4647 24.4636 43.1348 24.9361 42.9081C25.4086 42.6814 25.926 42.5637 26.45 42.5637C26.9741 42.5637 27.4915 42.6814 27.964 42.9081C28.4365 43.1348 28.8521 43.4647 29.18 43.8735L30.3467 45.3668L35.55 38.4368C35.9847 37.8572 36.5484 37.3868 37.1964 37.0628C37.8444 36.7388 38.5589 36.5701 39.2834 36.5701C40.0078 36.5701 40.7224 36.7388 41.3704 37.0628C42.0184 37.3868 42.582 37.8572 43.0167 38.4368ZM31 21.7535C31.5367 19.6301 28.9467 18.1368 27.3834 19.6535C26.9779 20.0497 26.4336 20.2715 25.8667 20.2715C25.2998 20.2715 24.7555 20.0497 24.35 19.6535C22.7867 18.1368 20.1967 19.6301 20.7334 21.7535C20.8698 22.3008 20.7877 22.8796 20.5046 23.3675C20.2215 23.8553 19.7596 24.2137 19.2167 24.3668C17.1167 24.9735 17.1167 27.9601 19.2167 28.5668C20.3367 28.8935 21.0134 30.0368 20.7334 31.1801C20.1967 33.3035 22.7867 34.7968 24.35 33.2801C24.7555 32.8839 25.2998 32.6621 25.8667 32.6621C26.4336 32.6621 26.9779 32.8839 27.3834 33.2801C28.9467 34.7968 31.5367 33.3035 31 31.1801C30.8636 30.6328 30.9457 30.054 31.2288 29.5661C31.5119 29.0783 31.9738 28.7199 32.5167 28.5668C34.6167 27.9601 34.6167 24.9735 32.5167 24.3668C31.9738 24.2137 31.5119 23.8553 31.2288 23.3675C30.9457 22.8796 30.8636 22.3008 31 21.7535Z" fill="white"/>
</svg>
