<svg width="71" height="70" viewBox="0 0 71 70" fill="none" xmlns="http://www.w3.org/2000/svg">
<path fill-rule="evenodd" clip-rule="evenodd" d="M35.7995 60.6673C42.6067 60.6673 49.1351 57.9632 53.9486 53.1497C58.762 48.3363 61.4661 41.8079 61.4661 35.0007C61.4661 28.1934 58.762 21.665 53.9486 16.8516C49.1351 12.0381 42.6067 9.33398 35.7995 9.33398C28.9923 9.33398 22.4638 12.0381 17.6504 16.8516C12.837 21.665 10.1328 28.1934 10.1328 35.0007C10.1328 41.8079 12.837 48.3363 17.6504 53.1497C22.4638 57.9632 28.9923 60.6673 35.7995 60.6673ZM35.1461 23.334C32.8595 23.334 30.9228 24.4307 29.8495 25.994C29.6781 26.2509 29.4575 26.4712 29.2003 26.6422C28.9431 26.8132 28.6546 26.9315 28.3514 26.9901C28.0482 27.0488 27.7363 27.0466 27.434 26.9838C27.1316 26.9211 26.8447 26.7989 26.5899 26.6244C26.3351 26.4499 26.1175 26.2265 25.9496 25.9673C25.7818 25.7081 25.6671 25.4181 25.6122 25.1142C25.5573 24.8103 25.5632 24.4985 25.6297 24.1969C25.6962 23.8953 25.8219 23.61 25.9995 23.3573C27.0292 21.8922 28.4 20.6996 29.9935 19.8825C31.587 19.0654 33.3554 18.6483 35.1461 18.6673C40.9795 18.6673 45.9962 23.054 45.9962 28.8873C45.9962 33.7873 42.4028 37.684 37.7828 38.7807L38.1095 41.114C38.1664 41.7136 37.9892 42.312 37.615 42.784C37.2408 43.2559 36.6986 43.5649 36.1018 43.6463C35.5051 43.7277 34.8999 43.5751 34.413 43.2206C33.9261 42.866 33.5952 42.3369 33.4895 41.744L32.8361 37.0773C32.7894 36.7466 32.8142 36.4097 32.9088 36.0894C33.0035 35.7691 33.1658 35.4729 33.3848 35.2207C33.6038 34.9685 33.8743 34.7663 34.1782 34.6277C34.4821 34.4891 34.8122 34.4174 35.1461 34.4173C38.7395 34.4173 41.3295 31.7573 41.3295 28.864C41.3295 25.994 38.7628 23.334 35.1461 23.334ZM38.1328 48.7207C38.1673 49.0862 38.1251 49.4549 38.0089 49.8031C37.8926 50.1514 37.705 50.4715 37.4578 50.7431C37.2107 51.0146 36.9096 51.2315 36.5738 51.38C36.2381 51.5284 35.875 51.6051 35.5078 51.6051C35.1407 51.6051 34.7776 51.5284 34.4418 51.38C34.106 51.2315 33.8049 51.0146 33.5578 50.7431C33.3107 50.4715 33.123 50.1514 33.0068 49.8031C32.8905 49.4549 32.8483 49.0862 32.8828 48.7207C32.9445 48.0672 33.2477 47.4602 33.7332 47.0184C34.2186 46.5766 34.8514 46.3317 35.5078 46.3317C36.1642 46.3317 36.797 46.5766 37.2825 47.0184C37.7679 47.4602 38.0711 48.0672 38.1328 48.7207Z" fill="white"/>
</svg>
