<svg width="71" height="71" viewBox="0 0 71 71" fill="none" xmlns="http://www.w3.org/2000/svg">
<path d="M26.0294 60.9668C28.2385 60.9668 30.0294 59.1759 30.0294 56.9668V47.3197C30.0294 45.1106 31.8203 43.3197 34.0294 43.3197H37.7941C40.0033 43.3197 41.7941 45.1106 41.7941 47.3197V56.9668C41.7941 59.1759 43.585 60.9668 45.7941 60.9668H52.5C54.7091 60.9668 56.5 59.1759 56.5 56.9668V39.8843C56.5 38.5329 57.5955 37.4374 58.9469 37.4374C61.1895 37.4374 62.2507 34.6719 60.5838 33.1717L38.5876 13.3751C37.0664 12.006 34.7571 12.006 33.2359 13.3751L11.2397 33.1717C9.5728 34.6719 10.634 37.4374 12.8766 37.4374C14.228 37.4374 15.3235 38.5329 15.3235 39.8843V56.9668C15.3235 59.1759 17.1144 60.9668 19.3235 60.9668H26.0294Z" fill="white"/>
</svg>
