<svg width="71" height="71" viewBox="0 0 71 71" fill="none" xmlns="http://www.w3.org/2000/svg">
<path d="M41.6335 26.5664C42.885 26.5679 44.114 26.2339 45.1926 25.5992C46.2711 24.9644 47.1598 24.0521 47.766 22.9572C48.3723 21.8623 48.6739 20.6249 48.6395 19.3739C48.605 18.1228 48.2358 16.9039 47.5703 15.844C46.9048 14.7841 45.9673 13.9221 44.8555 13.3475C43.7436 12.773 42.4981 12.5071 41.2486 12.5775C39.999 12.6478 38.7912 13.0519 37.7509 13.7476C36.7106 14.4433 35.8758 15.4052 35.3335 16.5331C34.8668 17.4664 35.4735 18.5397 36.3601 19.1464C38.894 20.8033 40.6845 23.3804 41.3535 26.3331C41.3768 26.4731 41.4935 26.5664 41.6335 26.5664ZM50.8268 48.1964C51.1768 49.1997 52.0868 49.8997 53.1601 49.8997H55.6335C57.5701 49.8997 59.1335 48.3364 59.1335 46.3997C59.1317 42.1638 57.5937 38.0723 54.8047 34.8842C52.0156 31.6961 48.1649 29.6279 43.9668 29.0631C42.6835 28.8764 41.6568 29.9497 41.4001 31.2097C41.2601 31.9097 41.0501 32.6097 40.7935 33.2397C40.2568 34.5931 40.6768 36.2731 41.8901 37.0431C46.0152 39.6762 49.1564 43.5965 50.8268 48.1964ZM36.9668 28.8997C36.9668 29.819 36.7857 30.7292 36.434 31.5785C36.0822 32.4278 35.5666 33.1995 34.9165 33.8495C34.2665 34.4995 33.4949 35.0151 32.6456 35.3669C31.7963 35.7187 30.886 35.8997 29.9668 35.8997C29.0475 35.8997 28.1373 35.7187 27.288 35.3669C26.4387 35.0151 25.6671 34.4995 25.017 33.8495C24.367 33.1995 23.8514 32.4278 23.4996 31.5785C23.1479 30.7292 22.9668 29.819 22.9668 28.8997C22.9668 27.0432 23.7043 25.2627 25.017 23.95C26.3298 22.6372 28.1103 21.8997 29.9668 21.8997C31.8233 21.8997 33.6038 22.6372 34.9165 23.95C36.2293 25.2627 36.9668 27.0432 36.9668 28.8997ZM12.4668 55.7331C12.4668 51.0918 14.3105 46.6406 17.5924 43.3587C20.8743 40.0768 25.3255 38.2331 29.9668 38.2331C34.6081 38.2331 39.0593 40.0768 42.3412 43.3587C45.6231 46.6406 47.4668 51.0918 47.4668 55.7331C47.4668 57.6697 45.9035 59.2331 43.9668 59.2331C43.8576 59.2353 43.7511 59.1991 43.6659 59.1309C43.5806 59.0627 43.5219 58.9667 43.5001 58.8597C43.0335 56.6197 42.1935 54.4964 41.4468 52.9331C41.2135 52.3964 40.4668 52.5831 40.4668 53.1664V58.0664C40.4668 58.3758 40.3439 58.6726 40.1251 58.8914C39.9063 59.1102 39.6095 59.2331 39.3001 59.2331H20.6335C20.324 59.2331 20.0273 59.1102 19.8085 58.8914C19.5897 58.6726 19.4668 58.3758 19.4668 58.0664V53.1664C19.4668 52.5831 18.7435 52.3964 18.4868 52.9331C17.7401 54.4964 16.9235 56.6197 16.4335 58.8597C16.4116 58.9667 16.353 59.0627 16.2677 59.1309C16.1825 59.1991 16.076 59.2353 15.9668 59.2331C15.0385 59.2331 14.1483 58.8643 13.4919 58.2079C12.8355 57.5516 12.4668 56.6613 12.4668 55.7331Z" fill="white"/>
</svg>
