<svg width="71" height="71" viewBox="0 0 71 71" fill="none" xmlns="http://www.w3.org/2000/svg">
<path fill-rule="evenodd" clip-rule="evenodd" d="M50.0967 20.3008C50.0967 16.9871 47.4104 14.3008 44.0967 14.3008H27.0967C23.783 14.3008 21.0967 16.9871 21.0967 20.3008L21.0968 49.0007V55.5007C21.0968 58.8144 23.7831 61.5007 27.0968 61.5007H44.0968C47.4105 61.5007 50.0968 58.8144 50.0968 55.5007V49.0007L50.0967 20.3008ZM38.9999 54.5007C38.9999 56.4337 37.4329 58.0007 35.4999 58.0007C33.5669 58.0007 31.9999 56.4337 31.9999 54.5007C31.9999 52.5677 33.5669 51.0007 35.4999 51.0007C37.4329 51.0007 38.9999 52.5677 38.9999 54.5007ZM27.9999 18.0007C26.343 18.0007 24.9999 19.3439 24.9999 21.0007V47.0007H45.9999V21.0007C45.9999 19.3439 44.6567 18.0007 42.9999 18.0007H27.9999Z" fill="white"/>
<path d="M14 17L14.2625 16.0812C15.3498 12.2755 18.2452 9.25161 22 8V8" stroke="white" stroke-width="4" stroke-linecap="round"/>
<path d="M57.5 17L57.2375 16.0812C56.1502 12.2755 53.2548 9.25161 49.5 8V8" stroke="white" stroke-width="4" stroke-linecap="round"/>
</svg>
