<svg width="71" height="71" viewBox="0 0 71 71" fill="none" xmlns="http://www.w3.org/2000/svg">
<path d="M35.5003 12.5664C33.025 12.5664 30.651 13.5497 28.9007 15.3001C27.1503 17.0504 26.167 19.4244 26.167 21.8997V31.2331C26.167 33.7084 27.1503 36.0824 28.9007 37.8327C30.651 39.5831 33.025 40.5664 35.5003 40.5664C37.9757 40.5664 40.3496 39.5831 42.1 37.8327C43.8503 36.0824 44.8337 33.7084 44.8337 31.2331V21.8997C44.8337 19.4244 43.8503 17.0504 42.1 15.3001C40.3496 13.5497 37.9757 12.5664 35.5003 12.5664Z" fill="white"/>
<path d="M21.4997 31.2337C21.4997 30.6149 21.2538 30.0214 20.8163 29.5838C20.3787 29.1462 19.7852 28.9004 19.1663 28.9004C18.5475 28.9004 17.954 29.1462 17.5164 29.5838C17.0788 30.0214 16.833 30.6149 16.833 31.2337C16.8314 35.7814 18.4901 40.1733 21.4976 43.5846C24.505 46.9959 28.6543 49.1919 33.1663 49.7604V54.5671H28.4997C27.8808 54.5671 27.2873 54.8129 26.8498 55.2505C26.4122 55.6881 26.1663 56.2816 26.1663 56.9004C26.1663 57.5192 26.4122 58.1127 26.8498 58.5503C27.2873 58.9879 27.8808 59.2337 28.4997 59.2337H42.4997C43.1185 59.2337 43.712 58.9879 44.1496 58.5503C44.5872 58.1127 44.833 57.5192 44.833 56.9004C44.833 56.2816 44.5872 55.6881 44.1496 55.2505C43.712 54.8129 43.1185 54.5671 42.4997 54.5671H37.833V49.7604C42.345 49.1919 46.4944 46.9959 49.5018 43.5846C52.5092 40.1733 54.1679 35.7814 54.1663 31.2337C54.1663 30.6149 53.9205 30.0214 53.4829 29.5838C53.0453 29.1462 52.4518 28.9004 51.833 28.9004C51.2142 28.9004 50.6207 29.1462 50.1831 29.5838C49.7455 30.0214 49.4997 30.6149 49.4997 31.2337C49.4997 34.9468 48.0247 38.5077 45.3992 41.1332C42.7737 43.7587 39.2127 45.2337 35.4997 45.2337C31.7866 45.2337 28.2257 43.7587 25.6002 41.1332C22.9747 38.5077 21.4997 34.9468 21.4997 31.2337Z" fill="white"/>
</svg>
