<svg width="71" height="71" viewBox="0 0 71 71" fill="none" xmlns="http://www.w3.org/2000/svg">
<path d="M13.7 60.8668L60.3667 14.2001C60.7037 13.7508 60.8673 13.195 60.8275 12.6347C60.7876 12.0745 60.5471 11.5474 60.1499 11.1502C59.7528 10.7531 59.2257 10.5125 58.6654 10.4727C58.1051 10.4329 57.5493 10.5965 57.1 10.9335L10.4333 57.6001C10.1659 57.8007 9.94467 58.0564 9.78466 58.3499C9.62464 58.6435 9.52957 58.9679 9.50587 59.3014C9.48217 59.6349 9.5304 59.9695 9.6473 60.2827C9.7642 60.5959 9.94703 60.8803 10.1834 61.1167C10.4198 61.3531 10.7042 61.5359 11.0174 61.6528C11.3306 61.7697 11.6653 61.818 11.9987 61.7943C12.3322 61.7706 12.6567 61.6755 12.9502 61.5155C13.2437 61.3555 13.4994 61.1342 13.7 60.8668ZM32.6 48.3135C32.11 48.8035 32.3667 49.6668 33.0667 49.7601V54.5668H28.4C27.7812 54.5668 27.1877 54.8126 26.7501 55.2502C26.3125 55.6878 26.0667 56.2813 26.0667 56.9001C26.0667 57.519 26.3125 58.1125 26.7501 58.55C27.1877 58.9876 27.7812 59.2335 28.4 59.2335H42.4C43.0188 59.2335 43.6123 58.9876 44.0499 58.55C44.4875 58.1125 44.7333 57.519 44.7333 56.9001C44.7333 56.2813 44.4875 55.6878 44.0499 55.2502C43.6123 54.8126 43.0188 54.5668 42.4 54.5668H37.7333V49.7601C42.2454 49.1917 46.3947 46.9956 49.4021 43.5843C52.4096 40.173 54.0682 35.7812 54.0667 31.2335C54.0667 30.6146 53.8208 30.0211 53.3833 29.5836C52.9457 29.146 52.3522 28.9001 51.7333 28.9001C51.1145 28.9001 50.521 29.146 50.0834 29.5836C49.6458 30.0211 49.4 30.6146 49.4 31.2335C49.4 34.6168 48.1867 37.7435 46.18 40.1701L46.1333 40.2168C44.9034 41.695 43.3816 42.9035 41.6632 43.7667C39.9449 44.63 38.0668 45.1293 36.1467 45.2335C35.8481 45.2484 35.5656 45.3731 35.3533 45.5835L32.6 48.3368V48.3135ZM43.24 18.4468C43.59 18.0968 43.6833 17.5601 43.4267 17.1401C42.3832 15.3816 40.7911 14.0144 38.8951 13.2487C36.999 12.4829 34.904 12.3611 32.932 12.9018C30.9599 13.4425 29.22 14.6159 27.9797 16.2416C26.7394 17.8673 26.0673 19.8553 26.0667 21.9001V31.2335C26.0667 31.9335 26.1367 32.5868 26.3 33.2401C26.4633 34.0335 27.4433 34.2435 28.0267 33.6601L43.24 18.4468ZM19.2067 40.5201C19.58 41.1735 20.4433 41.2435 20.9567 40.7301L22.7067 38.9801C23.08 38.6068 23.15 38.0468 22.8933 37.5568C21.9041 35.5962 21.3924 33.4295 21.4 31.2335C21.4 30.6146 21.1542 30.0211 20.7166 29.5836C20.279 29.146 19.6855 28.9001 19.0667 28.9001C18.4478 28.9001 17.8543 29.146 17.4168 29.5836C16.9792 30.0211 16.7333 30.6146 16.7333 31.2335C16.7333 34.6168 17.6433 37.7901 19.2067 40.5201Z" fill="#F23F42"/>
</svg>
