<svg width="71" height="71" viewBox="0 0 71 71" fill="none" xmlns="http://www.w3.org/2000/svg">
<g clip-path="url(#clip0_1_195)">
<path d="M51.9333 40.5664C52.5521 40.5664 53.1456 40.8122 53.5832 41.2498C54.0208 41.6874 54.2666 42.2809 54.2666 42.8997V49.8997H61.2666C61.8854 49.8997 62.4789 50.1456 62.9165 50.5832C63.3541 51.0207 63.5999 51.6142 63.5999 52.2331C63.5999 52.8519 63.3541 53.4454 62.9165 53.883C62.4789 54.3206 61.8854 54.5664 61.2666 54.5664H54.2666V61.5664C54.2666 62.1852 54.0208 62.7787 53.5832 63.2163C53.1456 63.6539 52.5521 63.8997 51.9333 63.8997C51.3144 63.8997 50.7209 63.6539 50.2833 63.2163C49.8458 62.7787 49.5999 62.1852 49.5999 61.5664V54.5664H42.5999C41.9811 54.5664 41.3876 54.3206 40.95 53.883C40.5124 53.4454 40.2666 52.8519 40.2666 52.2331C40.2666 51.6142 40.5124 51.0207 40.95 50.5832C41.3876 50.1456 41.9811 49.8997 42.5999 49.8997H49.5999V42.8997C49.5999 42.2809 49.8458 41.6874 50.2833 41.2498C50.7209 40.8122 51.3144 40.5664 51.9333 40.5664Z" fill="white"/>
<path d="M56.0399 37.2299C56.9732 37.9299 58.9099 37.5333 58.9332 36.3666V35.8999C58.9345 32.2787 58.0928 28.7068 56.4749 25.4671C54.857 22.2274 52.5073 19.4087 49.6116 17.2341C46.716 15.0595 43.354 13.5887 39.7916 12.9382C36.2293 12.2877 32.5644 12.4752 29.0871 13.4859C25.6098 14.4967 22.4154 16.303 19.7569 18.7618C17.0983 21.2205 15.0485 24.2644 13.7698 27.6523C12.491 31.0403 12.0184 34.6794 12.3892 38.2816C12.7601 41.8838 13.9643 45.3503 15.9065 48.4066C16.1865 48.8499 16.1399 49.4333 15.8132 49.8299L10.9832 55.3599C10.6873 55.6968 10.4946 56.1118 10.4284 56.5553C10.3622 56.9988 10.4252 57.452 10.6098 57.8606C10.7944 58.2693 11.0929 58.6161 11.4695 58.8595C11.8461 59.1029 12.2848 59.2327 12.7332 59.2333H36.0665C37.2332 59.2099 37.6299 57.2733 36.9299 56.3399C36.1729 55.2951 35.7195 54.0613 35.6197 52.7749C35.5198 51.4886 35.7775 50.1996 36.3641 49.0505C36.9508 47.9013 37.8436 46.9367 38.944 46.2631C40.0445 45.5894 41.3096 45.233 42.5999 45.2333H43.7666C44.076 45.2333 44.3727 45.1104 44.5915 44.8916C44.8103 44.6728 44.9332 44.376 44.9332 44.0666V42.8999C44.933 41.6097 45.2894 40.3445 45.963 39.2441C46.6366 38.1436 47.6013 37.2508 48.7504 36.6642C49.8996 36.0775 51.1885 35.8199 52.4749 35.9197C53.7613 36.0196 54.995 36.473 56.0399 37.2299Z" fill="white"/>
</g>
<defs>
<clipPath id="clip0_1_195">
<rect width="56" height="56" fill="white" transform="translate(7.6001 7.90039)"/>
</clipPath>
</defs>
</svg>
