<svg width="70" height="70" viewBox="0 0 70 70" fill="none" xmlns="http://www.w3.org/2000/svg">
<path d="M29.6333 13.743C30.0533 13.5797 30.38 13.183 30.4967 12.7397C30.7653 11.7511 31.3518 10.8784 32.1657 10.2562C32.9796 9.63398 33.9755 9.29688 35 9.29688C36.0245 9.29688 37.0204 9.63398 37.8343 10.2562C38.6482 10.8784 39.2347 11.7511 39.5033 12.7397C39.62 13.2064 39.9467 13.5797 40.39 13.743C43.5885 14.8612 46.3601 16.9464 48.3209 19.7098C50.2816 22.4732 51.3344 25.778 51.3333 29.1664V34.043C51.3333 34.323 51.45 34.603 51.6367 34.813L54.2033 37.6597C55.3617 38.947 56.0019 40.618 56 42.3497V43.003C56 44.5664 55.2067 46.013 53.7833 46.643C50.7267 48.043 44.45 50.1664 35 50.1664C25.55 50.1664 19.2733 48.043 16.2167 46.6664C14.7933 46.013 14 44.5664 14 43.003V42.3497C14.0039 40.626 14.6436 38.9643 15.7967 37.683L18.3633 34.813C18.5551 34.6021 18.663 34.3282 18.6667 34.043V29.1664C18.6673 25.7752 19.7235 22.4683 21.6886 19.7046C23.6538 16.9408 26.4304 14.8573 29.6333 13.743ZM28.42 53.293C28.3672 53.2864 28.3136 53.2911 28.2628 53.3069C28.2119 53.3226 28.1651 53.3491 28.1253 53.3844C28.0855 53.4198 28.0538 53.4632 28.0322 53.5118C28.0105 53.5605 27.9996 53.6132 28 53.6664C28 55.5229 28.7375 57.3034 30.0503 58.6161C31.363 59.9289 33.1435 60.6664 35 60.6664C36.8565 60.6664 38.637 59.9289 39.9497 58.6161C41.2625 57.3034 42 55.5229 42 53.6664C42 53.433 41.79 53.2697 41.58 53.293C37.2075 53.7923 32.7925 53.7923 28.42 53.293Z" fill="white"/>
</svg>
