<svg width="71" height="70" viewBox="0 0 71 70" fill="none" xmlns="http://www.w3.org/2000/svg">
<path d="M10.9333 56.6997C10.6659 56.9003 10.4447 57.156 10.2847 57.4495C10.1246 57.743 10.0296 58.0675 10.0059 58.401C9.98217 58.7344 10.0304 59.0691 10.1473 59.3823C10.2642 59.6955 10.447 59.9799 10.6834 60.2163C10.9198 60.4527 11.2042 60.6355 11.5174 60.7524C11.8306 60.8693 12.1653 60.9175 12.4987 60.8938C12.8322 60.8701 13.1567 60.7751 13.4502 60.615C13.7437 60.455 13.9994 60.2338 14.2 59.9664L60.8667 13.2997C61.2037 12.8504 61.3673 12.2946 61.3275 11.7343C61.2877 11.174 61.0471 10.647 60.6499 10.2498C60.2528 9.85263 59.7257 9.61206 59.1654 9.57225C58.6052 9.53243 58.0493 9.69604 57.6 10.033L10.9333 56.6997ZM15.2033 44.6364C15.46 45.2664 16.2767 45.2897 16.7433 44.823L44.6033 16.963C44.7255 16.8485 44.8198 16.7076 44.879 16.551C44.9383 16.3944 44.9609 16.2263 44.9451 16.0597C44.9294 15.893 44.8756 15.7321 44.7881 15.5894C44.7005 15.4467 44.5815 15.3259 44.44 15.2364C43.4465 14.6272 42.3905 14.1265 41.29 13.743C41.0723 13.6596 40.878 13.5248 40.7236 13.3501C40.5692 13.1754 40.4593 12.966 40.4033 12.7397C40.1347 11.7511 39.5482 10.8784 38.7343 10.2562C37.9204 9.63398 36.9245 9.29688 35.9 9.29688C34.8755 9.29688 33.8796 9.63398 33.0657 10.2562C32.2518 10.8784 31.6653 11.7511 31.3967 12.7397C31.3407 12.966 31.2308 13.1754 31.0764 13.3501C30.922 13.5248 30.7277 13.6596 30.51 13.743C27.3115 14.8612 24.5399 16.9464 22.5791 19.7098C20.6184 22.4732 19.5656 25.778 19.5667 29.1664V34.043C19.563 34.3282 19.4551 34.6021 19.2633 34.813L16.6967 37.6597C15.5383 38.947 14.8981 40.618 14.9 42.3497V43.003C14.9 43.563 14.9933 44.123 15.2033 44.6364ZM51.3933 28.8397C51.6967 28.5364 52.2333 28.723 52.2333 29.1664V34.043C52.2333 34.323 52.35 34.603 52.5367 34.813L55.1033 37.6597C56.2617 38.947 56.9019 40.618 56.9 42.3497V43.003C56.9 44.5664 56.1067 46.013 54.6833 46.643C51.6267 48.043 45.35 50.1664 35.9 50.1664C34.8267 50.1664 33.8 50.143 32.7967 50.0964C32.5778 50.0838 32.3674 50.0071 32.1916 49.8761C32.0158 49.745 31.8824 49.5652 31.8078 49.3589C31.7333 49.1527 31.7209 48.9292 31.7723 48.716C31.8236 48.5028 31.9364 48.3094 32.0967 48.1597L51.3933 28.8397ZM29.32 53.293C29.2672 53.2864 29.2136 53.2911 29.1628 53.3069C29.1119 53.3226 29.0651 53.3491 29.0253 53.3844C28.9855 53.4198 28.9538 53.4632 28.9322 53.5118C28.9105 53.5605 28.8996 53.6132 28.9 53.6664C28.9 55.5229 29.6375 57.3034 30.9503 58.6161C32.263 59.9289 34.0435 60.6664 35.9 60.6664C37.7565 60.6664 39.537 59.9289 40.8498 58.6161C42.1625 57.3034 42.9 55.5229 42.9 53.6664C42.9 53.433 42.69 53.2697 42.48 53.293C38.1076 53.7927 33.6924 53.7927 29.32 53.293Z" fill="white"/>
</svg>
