<svg width="71" height="71" viewBox="0 0 71 71" fill="none" xmlns="http://www.w3.org/2000/svg">
<path d="M52.3199 34.453C53.6324 35.7638 55.4115 36.5002 57.2665 36.5002C59.1216 36.5002 60.9007 35.7638 62.2132 34.453L62.2832 34.383C62.497 34.1649 62.6167 33.8717 62.6167 33.5663C62.6167 33.2609 62.497 32.9677 62.2832 32.7496L38.2499 8.71631C38.0318 8.50255 37.7386 8.38281 37.4332 8.38281C37.1278 8.38281 36.8346 8.50255 36.6165 8.71631L36.5465 8.78631C35.2357 10.0988 34.4994 11.878 34.4994 13.733C34.4994 15.588 35.2357 17.3671 36.5465 18.6796L37.4332 19.5663L30.6199 26.3796L22.1032 25.5863C21.4197 25.5234 20.7307 25.6121 20.0854 25.8461C19.4401 26.08 18.8543 26.4534 18.3699 26.9396L16.9232 28.4096C16.7045 28.6266 16.5309 28.8846 16.4125 29.169C16.294 29.4533 16.233 29.7583 16.233 30.0663C16.233 30.3743 16.294 30.6793 16.4125 30.9637C16.5309 31.248 16.7045 31.5061 16.9232 31.723L39.2765 54.0763C39.4935 54.295 39.7515 54.4686 40.0359 54.5871C40.3202 54.7055 40.6252 54.7665 40.9332 54.7665C41.2412 54.7665 41.5462 54.7055 41.8306 54.5871C42.1149 54.4686 42.373 54.295 42.5899 54.0763L44.0599 52.6063C44.5461 52.1218 44.9195 51.5361 45.1535 50.8908C45.3874 50.2455 45.4761 49.5565 45.4132 48.873L44.6199 40.3796L51.4332 33.5663L52.3199 34.453ZM28.2632 47.7296C28.385 47.8523 28.478 48.0005 28.5355 48.1635C28.593 48.3265 28.6136 48.5003 28.5957 48.6722C28.5779 48.8442 28.522 49.01 28.4322 49.1577C28.3424 49.3054 28.221 49.4313 28.0765 49.5263L16.0599 57.5296C15.8363 57.6794 15.5678 57.7473 15.2999 57.7218C15.032 57.6963 14.7812 57.5789 14.5899 57.3896L13.6099 56.4096C13.4206 56.2184 13.3032 55.9675 13.2777 55.6996C13.2522 55.4317 13.3201 55.1632 13.4699 54.9396L21.4732 42.8996C21.5682 42.7552 21.6941 42.6337 21.8418 42.5439C21.9895 42.4542 22.1554 42.3983 22.3273 42.3804C22.4992 42.3626 22.673 42.3832 22.836 42.4407C22.999 42.4982 23.1472 42.5912 23.2699 42.713L28.2632 47.7063V47.7296Z" fill="white"/>
</svg>
