<svg width="71" height="71" viewBox="0 0 71 71" fill="none" xmlns="http://www.w3.org/2000/svg">
<path d="M35.3997 31.0319C37.8751 31.0319 40.2491 30.0486 41.9994 28.2982C43.7497 26.5479 44.7331 24.1739 44.7331 21.6986C44.7331 19.2232 43.7497 16.8492 41.9994 15.0989C40.2491 13.3486 37.8751 12.3652 35.3997 12.3652C32.9244 12.3652 30.5504 13.3486 28.8001 15.0989C27.0497 16.8492 26.0664 19.2232 26.0664 21.6986C26.0664 24.1739 27.0497 26.5479 28.8001 28.2982C30.5504 30.0486 32.9244 31.0319 35.3997 31.0319ZM34.3031 33.3652C28.4055 33.3652 22.7496 35.708 18.5794 39.8782C14.4092 44.0484 12.0664 49.7044 12.0664 55.6019C12.0664 57.4919 13.6064 59.0319 15.4964 59.0319H16.0097C16.5697 59.0319 17.0364 58.6352 17.1764 58.0986C17.8531 55.4852 19.1364 53.0352 20.2564 51.3086C20.5831 50.8186 21.2597 51.0752 21.1897 51.6586L20.5831 57.7486C20.5364 58.4486 21.0497 59.0319 21.7497 59.0319H49.0497C49.2133 59.0327 49.3752 58.9991 49.5249 58.9334C49.6746 58.8676 49.8088 58.771 49.9188 58.65C50.0289 58.529 50.1122 58.3862 50.1635 58.2309C50.2147 58.0756 50.2328 57.9113 50.2164 57.7486L49.5864 51.6819C49.5397 51.0752 50.2164 50.8186 50.5431 51.3086C51.6631 53.0352 52.9464 55.5086 53.6231 58.0752C53.7631 58.6352 54.2297 59.0319 54.7897 59.0319H55.3031C57.1931 59.0319 58.7331 57.4919 58.7331 55.6019C58.7331 49.7044 56.3903 44.0484 52.2201 39.8782C48.0499 35.708 42.3939 33.3652 36.4964 33.3652H34.3031Z" fill="white"/>
</svg>
