<svg width="70" height="71" viewBox="0 0 70 71" fill="none" xmlns="http://www.w3.org/2000/svg">
<path fill-rule="evenodd" clip-rule="evenodd" d="M43.4468 47.6372C39.2541 50.989 33.9369 52.608 28.5876 52.1616C23.2384 51.7153 18.2631 49.2374 14.6838 45.237C11.1046 41.2366 9.19313 36.0175 9.34208 30.6517C9.49103 25.2859 11.6891 20.1808 15.4848 16.3851C19.2804 12.5895 24.3855 10.3914 29.7513 10.2425C35.1171 10.0935 40.3362 12.005 44.3366 15.5842C48.337 19.1635 50.8149 24.1387 51.2613 29.488C51.7076 34.8373 50.0887 40.1545 46.7368 44.3472L57.6568 55.2439C57.8744 55.4615 58.047 55.7197 58.1647 56.004C58.2825 56.2882 58.3431 56.5929 58.3431 56.9006C58.3431 57.2082 58.2825 57.5129 58.1647 57.7971C58.047 58.0814 57.8744 58.3397 57.6568 58.5572C57.4393 58.7748 57.181 58.9474 56.8968 59.0651C56.6125 59.1828 56.3078 59.2434 56.0002 59.2434C55.6925 59.2434 55.3878 59.1828 55.1036 59.0651C54.8193 58.9474 54.5611 58.7748 54.3435 58.5572L43.4468 47.6372ZM46.6668 31.2339C46.6668 33.3788 46.2444 35.5027 45.4235 37.4844C44.6027 39.466 43.3996 41.2666 41.8829 42.7833C40.3662 44.3 38.5657 45.5031 36.584 46.3239C34.6024 47.1448 32.4784 47.5672 30.3335 47.5672C28.1886 47.5672 26.0647 47.1448 24.083 46.3239C22.1014 45.5031 20.3008 44.3 18.7841 42.7833C17.2674 41.2666 16.0643 39.466 15.2435 37.4844C14.4226 35.5027 14.0002 33.3788 14.0002 31.2339C14.0002 26.902 15.721 22.7476 18.7841 19.6845C21.8472 16.6214 26.0016 14.9006 30.3335 14.9006C34.6654 14.9006 38.8198 16.6214 41.8829 19.6845C44.946 22.7476 46.6668 26.902 46.6668 31.2339Z" fill="white"/>
</svg>
