<svg width="70" height="71" viewBox="0 0 70 71" fill="none" xmlns="http://www.w3.org/2000/svg">
<path d="M32.6668 14.8001C32.6668 14.1813 32.9126 13.5878 33.3502 13.1502C33.7878 12.7126 34.3813 12.4668 35.0001 12.4668C35.619 12.4668 36.2125 12.7126 36.65 13.1502C37.0876 13.5878 37.3335 14.1813 37.3335 14.8001V19.4668H50.7501C51.1235 19.4668 51.4501 19.6301 51.6835 19.9335L57.8201 28.1001C57.9716 28.3021 58.0535 28.5477 58.0535 28.8001C58.0535 29.0526 57.9716 29.2982 57.8201 29.5001L51.6835 37.6668C51.5748 37.8117 51.4339 37.9293 51.2719 38.0103C51.1099 38.0913 50.9312 38.1335 50.7501 38.1335H37.3335V49.8001H42.0001C43.2378 49.8001 44.4248 50.2918 45.3 51.167C46.1751 52.0421 46.6668 53.2291 46.6668 54.4668V56.8001C46.6668 57.419 46.421 58.0125 45.9834 58.45C45.5458 58.8876 44.9523 59.1335 44.3335 59.1335H25.6668C25.048 59.1335 24.4545 58.8876 24.0169 58.45C23.5793 58.0125 23.3335 57.419 23.3335 56.8001V54.4668C23.3335 51.9001 25.4335 49.8001 28.0001 49.8001H32.6668V38.1335H13.5335C13.3372 38.1299 13.1449 38.077 12.9746 37.9794C12.8042 37.8818 12.6612 37.7429 12.5589 37.5753C12.4565 37.4078 12.3981 37.2172 12.389 37.0211C12.3798 36.825 12.4204 36.6297 12.5068 36.4535L16.1001 29.3135C16.1784 29.1537 16.2191 28.9781 16.2191 28.8001C16.2191 28.6222 16.1784 28.4466 16.1001 28.2868L12.5068 21.1468C12.4196 20.9688 12.3791 20.7714 12.3893 20.5734C12.3995 20.3754 12.46 20.1833 12.5651 20.0151C12.6702 19.847 12.8164 19.7084 12.9899 19.6125C13.1634 19.5165 13.3585 19.4664 13.5568 19.4668H32.6668V14.8001Z" fill="white"/>
</svg>
