<svg width="71" height="71" viewBox="0 0 71 71" fill="none" xmlns="http://www.w3.org/2000/svg">
<path fill-rule="evenodd" clip-rule="evenodd" d="M32.34 10.4668C31.2666 10.5835 30.7066 11.7035 30.8466 12.7535C31.2666 15.4601 30.4033 17.8868 28.5599 18.6568C26.6933 19.4268 24.3833 18.3068 22.75 16.0901C22.12 15.2501 20.93 14.8768 20.09 15.5301C18.2933 16.9068 16.7066 18.4935 15.33 20.2901C14.6766 21.1301 15.05 22.3201 15.89 22.9501C18.13 24.5835 19.2266 26.9168 18.4566 28.7601C17.6866 30.6268 15.26 31.4668 12.5533 31.0468C11.5033 30.8835 10.3833 31.4668 10.2433 32.5401C9.95146 34.7706 9.95146 37.0296 10.2433 39.2601C10.3833 40.3335 11.5033 40.8935 12.5533 40.7535C15.26 40.3335 17.6866 41.1968 18.4566 43.0401C19.2266 44.9068 18.13 47.2168 15.89 48.8501C15.05 49.4801 14.6766 50.6701 15.33 51.5101C16.7066 53.3068 18.2933 54.8935 20.09 56.2701C20.93 56.9235 22.12 56.5501 22.75 55.7101C24.3833 53.4935 26.7166 52.3735 28.5599 53.1435C30.4266 53.9135 31.2666 56.3401 30.8466 59.0468C30.6833 60.0968 31.2666 61.2168 32.34 61.3568C34.5704 61.6486 36.8295 61.6486 39.0599 61.3568C40.1333 61.2168 40.6933 60.0968 40.5533 59.0468C40.1333 56.3401 40.9966 53.9135 42.84 53.1435C44.7066 52.3735 47.0166 53.4701 48.6499 55.7101C49.2799 56.5501 50.47 56.9235 51.31 56.2701C53.1066 54.8935 54.6933 53.3068 56.0699 51.5101C56.7233 50.6701 56.3499 49.4801 55.5099 48.8501C53.2699 47.2168 52.1733 44.8835 52.9433 43.0401C53.7133 41.1735 56.1399 40.3335 58.8466 40.7535C59.8966 40.9168 61.0166 40.3335 61.1566 39.2601C61.4484 37.0296 61.4484 34.7706 61.1566 32.5401C61.0166 31.4668 59.8966 30.9068 58.8466 31.0468C56.1399 31.4668 53.7133 30.6035 52.9433 28.7601C52.1733 26.8935 53.2699 24.5835 55.5099 22.9501C56.3499 22.3201 56.7233 21.1301 56.0699 20.2901C54.6977 18.5026 53.0975 16.9024 51.31 15.5301C50.47 14.8768 49.2799 15.2501 48.6499 16.0901C47.0166 18.3301 44.6833 19.4268 42.84 18.6568C40.9733 17.8868 40.1333 15.4601 40.5533 12.7535C40.7166 11.7035 40.1333 10.5835 39.0599 10.4435C36.8295 10.1517 34.5704 10.1517 32.34 10.4435V10.4668ZM45.0333 35.9001C45.0333 38.3755 44.05 40.7495 42.2996 42.4998C40.5493 44.2501 38.1753 45.2335 35.6999 45.2335C33.2246 45.2335 30.8506 44.2501 29.1003 42.4998C27.3499 40.7495 26.3666 38.3755 26.3666 35.9001C26.3666 33.4248 27.3499 31.0508 29.1003 29.3005C30.8506 27.5501 33.2246 26.5668 35.6999 26.5668C38.1753 26.5668 40.5493 27.5501 42.2996 29.3005C44.05 31.0508 45.0333 33.4248 45.0333 35.9001Z" fill="white"/>
</svg>
