<svg width="71" height="70" viewBox="0 0 71 70" fill="none" xmlns="http://www.w3.org/2000/svg">
<path d="M13.4364 16.7761C13.8499 15.3013 14.7357 14.0029 15.9579 13.0799C17.1802 12.1569 18.6714 11.6602 20.203 11.6661H23.633C24.2519 11.6661 24.8454 11.9119 25.283 12.3495C25.7205 12.7871 25.9664 13.3806 25.9664 13.9994V23.2861C25.9757 24.3756 25.7362 25.453 25.2664 26.4361C24.6891 27.6223 23.7852 28.6191 22.661 29.3094C21.5367 29.9997 20.2388 30.3547 18.9197 30.3327C14.253 30.3327 10.893 25.8994 12.153 21.3961L13.4364 16.7761ZM30.633 11.6661C30.0142 11.6661 29.4207 11.9119 28.9831 12.3495C28.5455 12.7871 28.2997 13.3806 28.2997 13.9994V23.3327C28.2997 25.1892 29.0372 26.9697 30.35 28.2825C31.6627 29.5952 33.4432 30.3327 35.2997 30.3327C37.1442 30.3328 38.9141 29.6049 40.2249 28.3073C41.5356 27.0096 42.2813 25.2471 42.2997 23.4027V13.9994C42.2997 13.3806 42.0539 12.7871 41.6163 12.3495C41.1787 11.9119 40.5852 11.6661 39.9664 11.6661H30.633ZM46.9664 11.6661C46.3475 11.6661 45.754 11.9119 45.3165 12.3495C44.8789 12.7871 44.633 13.3806 44.633 13.9994V23.2861C44.6328 23.325 44.6328 23.3638 44.633 23.4027C44.6265 24.3245 44.8052 25.2382 45.1585 26.0896C45.5118 26.941 46.0325 27.7127 46.6897 28.359C47.347 29.0054 48.1273 29.5131 48.9845 29.8522C49.8416 30.1912 50.7582 30.3546 51.6797 30.3327C56.3464 30.3327 59.7064 25.8994 58.4464 21.3961L57.163 16.7761C56.7495 15.3013 55.8637 14.0029 54.6415 13.0799C53.4192 12.1569 51.928 11.6602 50.3964 11.6661H46.9664Z" fill="white"/>
<path d="M56.2998 33.6472V51.3339C56.2998 53.1904 55.5623 54.9709 54.2495 56.2836C52.9368 57.5964 51.1563 58.3339 49.2998 58.3339H42.8831C42.7284 58.3339 42.5801 58.2724 42.4707 58.163C42.3613 58.0536 42.2998 57.9053 42.2998 57.7505V44.3339C42.2998 43.0962 41.8081 41.9092 40.933 41.034C40.0578 40.1589 38.8708 39.6672 37.6331 39.6672H32.9665C31.7288 39.6672 30.5418 40.1589 29.6666 41.034C28.7915 41.9092 28.2998 43.0962 28.2998 44.3339V57.7505C28.2998 58.0772 28.0431 58.3339 27.7165 58.3339H21.2998C19.4433 58.3339 17.6628 57.5964 16.3501 56.2836C15.0373 54.9709 14.2998 53.1904 14.2998 51.3339V33.6472C14.2998 33.2272 14.7665 32.9472 15.1631 33.0872C17.1182 33.8777 19.2673 34.0555 21.3258 33.5972C23.3842 33.1388 25.2548 32.0659 26.6898 30.5205C26.9231 30.2405 27.3898 30.2405 27.6231 30.5205C28.6037 31.5764 29.7916 32.4186 31.1125 32.9946C32.4333 33.5705 33.8588 33.8677 35.2998 33.8677C36.7408 33.8677 38.1663 33.5705 39.4871 32.9946C40.808 32.4186 41.9959 31.5764 42.9765 30.5205C43.2098 30.2405 43.6765 30.2405 43.9098 30.5205C45.3429 32.0687 47.2136 33.1435 49.2727 33.6021C51.3319 34.0606 53.4819 33.881 55.4365 33.0872C55.8331 32.9239 56.2998 33.2272 56.2998 33.6472Z" fill="white"/>
</svg>
