<svg width="71" height="71" viewBox="0 0 71 71" fill="none" xmlns="http://www.w3.org/2000/svg">
<path d="M53.0566 50.3832C52.6864 49.9586 52.4692 49.4222 52.4396 48.8597C52.41 48.2972 52.5697 47.741 52.8933 47.2799C54.9627 44.1116 56.1376 40.443 56.2937 36.662C56.4498 32.8809 55.5813 29.128 53.78 25.7999C51.9788 22.4718 49.3116 19.6924 46.0607 17.7553C42.8098 15.8183 39.0958 14.7957 35.3116 14.7957C31.5273 14.7957 27.8134 15.8183 24.5625 17.7553C21.3115 19.6924 18.6444 22.4718 16.8431 25.7999C15.0419 29.128 14.1734 32.8809 14.3295 36.662C14.4856 40.443 15.6605 44.1116 17.7299 47.2799C18.3366 48.2599 18.3133 49.5432 17.5433 50.3832L17.4966 50.4299C16.5399 51.4565 14.8833 51.4332 14.0899 50.2665C11.4572 46.4099 9.92647 41.9081 9.6626 37.246C9.39873 32.5838 10.4117 27.9381 12.5925 23.809C14.7732 19.6799 18.0391 16.224 22.0383 13.8134C26.0376 11.4028 30.6187 10.1289 35.2883 10.1289C39.9578 10.1289 44.5389 11.4028 48.5382 13.8134C52.5375 16.224 55.8033 19.6799 57.9841 23.809C60.1648 27.9381 61.1778 32.5838 60.9139 37.246C60.65 41.9081 59.1193 46.4099 56.4866 50.2665C55.7166 51.4332 54.0599 51.4565 53.1033 50.4299L53.0566 50.3832Z" fill="white"/>
<path d="M46.5696 43.3377C47.5729 44.4343 49.3229 44.3177 49.9529 43.011C51.174 40.5209 51.7409 37.7608 51.6002 34.9909C51.4595 32.2211 50.6158 29.5327 49.1486 27.1791C47.6814 24.8255 45.6391 22.8843 43.2141 21.5384C40.7891 20.1926 38.0614 19.4863 35.2879 19.4863C32.5145 19.4863 29.7867 20.1926 27.3618 21.5384C24.9368 22.8843 22.8944 24.8255 21.4273 27.1791C19.9601 29.5327 19.1164 32.2211 18.9756 34.9909C18.8349 37.7608 19.4018 40.5209 20.6229 43.011C21.2763 44.3177 23.0263 44.411 24.0296 43.3377L24.1463 43.1977C24.8463 42.4277 24.9629 41.3077 24.5429 40.3277C23.7837 38.5545 23.4779 36.6202 23.653 34.6993C23.8281 32.7784 24.4786 30.9313 25.5459 29.3246C26.6131 27.7179 28.0636 26.4022 29.7664 25.496C31.4692 24.5899 33.3708 24.122 35.2996 24.1343C37.2222 24.1375 39.1143 24.6158 40.8075 25.5267C42.5007 26.4376 43.9425 27.7528 45.0047 29.3554C46.0669 30.958 46.7166 32.7982 46.896 34.7125C47.0754 36.6267 46.7789 38.5557 46.0329 40.3277C45.6363 41.3077 45.7296 42.4277 46.4529 43.1977L46.5696 43.3377Z" fill="white"/>
<path d="M42.3 35.8008C42.3 37.6573 41.5625 39.4378 40.2498 40.7505C38.937 42.0633 37.1566 42.8008 35.3 42.8008C33.4435 42.8008 31.6631 42.0633 30.3503 40.7505C29.0375 39.4378 28.3 37.6573 28.3 35.8008C28.3 33.9443 29.0375 32.1638 30.3503 30.851C31.6631 29.5383 33.4435 28.8008 35.3 28.8008C37.1566 28.8008 38.937 29.5383 40.2498 30.851C41.5625 32.1638 42.3 33.9443 42.3 35.8008ZM22.07 54.5374C21.4867 56.2174 22.35 58.0374 23.9367 58.8308C27.4655 60.5788 31.3503 61.4883 35.2884 61.4883C39.2264 61.4883 43.1112 60.5788 46.64 58.8308C47.4196 58.4639 48.0389 57.8259 48.3824 57.0359C48.7259 56.2458 48.7701 55.3577 48.5067 54.5374C47.5496 51.7947 45.7631 49.4176 43.3947 47.7356C41.0263 46.0536 38.1933 45.15 35.2884 45.15C32.3835 45.15 29.5505 46.0536 27.1821 47.7356C24.8137 49.4176 23.0271 51.7947 22.07 54.5374Z" fill="white"/>
</svg>
