<svg width="71" height="71" viewBox="0 0 71 71" fill="none" xmlns="http://www.w3.org/2000/svg">
<path fill-rule="evenodd" clip-rule="evenodd" d="M33.443 15.1738C33.492 14.869 33.4805 14.5574 33.4091 14.257C33.3377 13.9565 33.2079 13.6731 33.027 13.4228C32.846 13.1726 32.6176 12.9604 32.3547 12.7984C32.0918 12.6365 31.7995 12.5279 31.4946 12.4788C31.1898 12.4298 30.8782 12.4413 30.5778 12.5127C30.2773 12.5841 29.9939 12.7139 29.7436 12.8949C29.4934 13.0758 29.2812 13.3042 29.1192 13.5671C28.9573 13.83 28.8487 14.1223 28.7996 14.4272L26.8163 26.4672H17.133C16.5141 26.4672 15.9206 26.713 15.4831 27.1506C15.0455 27.5882 14.7996 28.1817 14.7996 28.8005C14.7996 29.4193 15.0455 30.0128 15.4831 30.4504C15.9206 30.888 16.5141 31.1338 17.133 31.1338H26.0463L24.483 40.4672H14.7996C14.1808 40.4672 13.5873 40.713 13.1497 41.1506C12.7121 41.5882 12.4663 42.1817 12.4663 42.8005C12.4663 43.4193 12.7121 44.0128 13.1497 44.4504C13.5873 44.888 14.1808 45.1338 14.7996 45.1338H23.713L21.8463 56.4272C21.7893 57.0172 21.9589 57.6067 22.3208 58.0762C22.6827 58.5457 23.2096 58.8598 23.7947 58.9548C24.3798 59.0499 24.9791 58.9187 25.4709 58.5879C25.9628 58.2571 26.3103 57.7515 26.443 57.1738L28.4496 45.1338H40.0463L38.1796 56.4272C38.1226 57.0172 38.2922 57.6067 38.6541 58.0762C39.016 58.5457 39.543 58.8598 40.128 58.9548C40.7131 59.0499 41.3124 58.9187 41.8043 58.5879C42.2961 58.2571 42.6437 57.7515 42.7763 57.1738L44.783 45.1338H54.4663C55.0851 45.1338 55.6786 44.888 56.1162 44.4504C56.5538 44.0128 56.7996 43.4193 56.7996 42.8005C56.7996 42.1817 56.5538 41.5882 56.1162 41.1506C55.6786 40.713 55.0851 40.4672 54.4663 40.4672H45.553L47.1163 31.1338H56.7996C57.4185 31.1338 58.012 30.888 58.4496 30.4504C58.8871 30.0128 59.133 29.4193 59.133 28.8005C59.133 28.1817 58.8871 27.5882 58.4496 27.1506C58.012 26.713 57.4185 26.4672 56.7996 26.4672H47.8863L49.753 15.1738C49.8244 14.8628 49.8312 14.5405 49.7731 14.2267C49.715 13.9129 49.5931 13.6144 49.415 13.3496C49.2369 13.0848 49.0064 12.8593 48.7377 12.6871C48.4691 12.5149 48.1679 12.3997 47.8529 12.3485C47.5379 12.2974 47.2158 12.3114 46.9064 12.3897C46.5971 12.4679 46.307 12.6088 46.0543 12.8037C45.8016 12.9985 45.5915 13.2431 45.437 13.5223C45.2825 13.8016 45.187 14.1095 45.1563 14.4272L43.1496 26.4672H31.553L33.4196 15.1738H33.443ZM40.8163 40.4672L42.3796 31.1338H30.783L29.2196 40.4672H40.8163Z" fill="white"/>
</svg>
