<svg width="70" height="71" viewBox="0 0 70 71" fill="none" xmlns="http://www.w3.org/2000/svg">
<path d="M34.9999 14.3573C34.5653 13.9202 34.3214 13.3288 34.3214 12.7123C34.3214 12.0959 34.5653 11.5045 34.9999 11.0673L35.8399 10.2273C36.2771 9.79276 36.8685 9.54883 37.4849 9.54883C38.1013 9.54883 38.6927 9.79276 39.1299 10.2273L60.5966 31.694C61.0241 32.1302 61.2636 32.7166 61.2636 33.3273C61.2636 33.9381 61.0241 34.5245 60.5966 34.9607L58.9632 36.594C58.578 36.9999 58.0598 37.2538 57.5029 37.3095C56.9461 37.3652 56.3879 37.2189 55.9299 36.8973L33.6699 21.2173C33.3773 21.0138 33.1352 20.746 32.9623 20.4344C32.7893 20.1228 32.6899 19.7758 32.6719 19.4198C32.6539 19.0639 32.7177 18.7085 32.8583 18.3811C32.9989 18.0536 33.2127 17.7627 33.4832 17.5307L35.8166 15.1973L34.9999 14.334V14.3573ZM34.9999 57.2673C35.4345 57.7045 35.6784 58.2959 35.6784 58.9123C35.6784 59.5288 35.4345 60.1202 34.9999 60.5573L34.1832 61.374C33.746 61.8086 33.1547 62.0525 32.5382 62.0525C31.9218 62.0525 31.3304 61.8086 30.8932 61.374L9.42656 39.9307C8.99198 39.4935 8.74805 38.9021 8.74805 38.2857C8.74805 37.6692 8.99198 37.0779 9.42656 36.6407L11.0599 35.0073C11.4481 34.605 11.9679 34.3554 12.5246 34.304C13.0813 34.2527 13.6379 34.4029 14.0932 34.7273L36.3532 50.4073C36.6443 50.6127 36.8845 50.882 37.0554 51.1946C37.2263 51.5072 37.3233 51.8547 37.3391 52.2106C37.3549 52.5665 37.2889 52.9213 37.1464 53.2478C37.0038 53.5742 36.7883 53.8637 36.5166 54.094L34.1832 56.4273L34.9999 57.2673ZM43.5399 47.0007C43.1978 47.5122 42.6675 47.8678 42.0644 47.9902C41.4613 48.1125 40.8343 47.9917 40.3199 47.654L20.5099 34.4473C20.2367 34.2859 19.9994 34.0704 19.8124 33.814C19.6253 33.5577 19.4926 33.2659 19.4222 32.9565C19.3518 32.6471 19.3452 32.3266 19.4029 32.0145C19.4606 31.7025 19.5813 31.4055 19.7577 31.1418C19.9341 30.878 20.1624 30.653 20.4287 30.4804C20.695 30.3079 20.9937 30.1915 21.3066 30.1384C21.6194 30.0852 21.9398 30.0965 22.2481 30.1714C22.5565 30.2463 22.8463 30.3833 23.0999 30.574L42.9099 43.7573C43.1645 43.9287 43.3829 44.1486 43.5524 44.4044C43.7219 44.6603 43.8393 44.947 43.8978 45.2483C43.9563 45.5496 43.9548 45.8594 43.8934 46.1601C43.832 46.4608 43.7119 46.7465 43.5399 47.0007ZM46.8999 41.0507C47.1535 41.2414 47.4433 41.3784 47.7517 41.4533C48.06 41.5282 48.3804 41.5395 48.6932 41.4863C49.0061 41.4332 49.3048 41.3168 49.5711 41.1443C49.8374 40.9717 50.0657 40.7467 50.2421 40.4829C50.4185 40.2192 50.5392 39.9222 50.5969 39.6101C50.6546 39.2981 50.648 38.9776 50.5776 38.6682C50.5072 38.3588 50.3744 38.067 50.1874 37.8107C50.0004 37.5543 49.763 37.3388 49.4899 37.1773L29.7032 23.9707C29.1898 23.6671 28.5796 23.5718 27.9981 23.7041C27.4165 23.8364 26.9077 24.1865 26.5761 24.6823C26.2446 25.1781 26.1155 25.782 26.2154 26.37C26.3153 26.9581 26.6366 27.4855 27.1132 27.844L46.9232 41.0507H46.8999Z" fill="white"/>
</svg>
