<svg width="70" height="71" viewBox="0 0 70 71" fill="none" xmlns="http://www.w3.org/2000/svg">
<path fill-rule="evenodd" clip-rule="evenodd" d="M63 35.9011C63 38.6661 58.52 40.7311 57.68 43.2161C56.84 45.7011 59.22 50.2161 57.68 52.2811C56.14 54.3461 51.24 53.5061 49.07 55.0811C46.9 56.6561 46.305 61.5211 43.68 62.3961C41.055 63.2711 37.835 59.5961 35.035 59.5961C32.235 59.5961 28.91 63.0961 26.39 62.3961C23.87 61.6961 23.17 56.6561 21 55.0811C18.83 53.5061 14 54.4511 12.39 52.2811C10.78 50.1111 13.195 45.8411 12.39 43.2161C11.585 40.5911 7 38.6661 7 35.9011C7 33.1361 11.48 31.0711 12.32 28.5861C13.16 26.1011 10.78 21.5861 12.32 19.5211C13.86 17.4561 18.795 18.2961 21 16.7211C23.205 15.1461 23.73 10.2811 26.355 9.30107C28.98 8.32107 32.2 12.2061 35 12.2061C37.8 12.2061 41.125 8.70607 43.645 9.40607C46.165 10.1061 46.83 15.1461 49 16.7211C51.17 18.2961 56 17.3511 57.61 19.5211C59.22 21.6911 56.805 25.9611 57.61 28.5861C58.415 31.2111 63 33.1361 63 35.9011Z" fill="#23A758"/>
<path fill-rule="evenodd" clip-rule="evenodd" d="M47.5614 28.043C47.9001 28.3886 48.0898 28.8532 48.0898 29.3371C48.0898 29.821 47.9001 30.2856 47.5614 30.6312L32.772 45.4205C32.4265 45.7592 31.9619 45.9489 31.478 45.9489C30.9941 45.9489 30.5295 45.7592 30.1839 45.4205L22.7893 38.0258C22.5774 37.8669 22.4021 37.6643 22.2753 37.4318C22.1486 37.1992 22.0732 36.9421 22.0545 36.6779C22.0357 36.4137 22.0739 36.1486 22.1665 35.9005C22.2591 35.6523 22.404 35.427 22.5913 35.2397C22.7786 35.0524 23.0039 34.9075 23.252 34.8149C23.5002 34.7223 23.7653 34.6841 24.0295 34.7029C24.2937 34.7216 24.5508 34.797 24.7833 34.9238C25.0159 35.0505 25.2185 35.2258 25.3774 35.4377L31.478 41.5198L44.9732 28.0245C45.3188 27.6858 45.7834 27.4961 46.2673 27.4961C46.7512 27.4961 47.2158 27.6858 47.5614 28.0245V28.043Z" fill="white"/>
</svg>
