<svg width="71" height="71" viewBox="0 0 71 71" fill="none" xmlns="http://www.w3.org/2000/svg">
<path d="M17.2334 17.0332C15.3769 17.0332 13.5964 17.7707 12.2837 19.0835C10.9709 20.3962 10.2334 22.1767 10.2334 24.0332V47.3665C10.2334 49.223 10.9709 51.0035 12.2837 52.3163C13.5964 53.629 15.3769 54.3665 17.2334 54.3665H42.9001C44.7566 54.3665 46.5371 53.629 47.8498 52.3163C49.1626 51.0035 49.9001 49.223 49.9001 47.3665V42.4199C49.897 42.8547 50.0156 43.2818 50.2424 43.6528C50.4691 44.0239 50.7951 44.3242 51.1834 44.5199L58.1834 48.0199C58.5404 48.1998 58.9376 48.2849 59.3369 48.2672C59.7363 48.2495 60.1243 48.1295 60.464 47.9187C60.8036 47.7079 61.0834 47.4133 61.2765 47.0633C61.4696 46.7133 61.5695 46.3196 61.5667 45.9199V25.4799C61.5695 25.0801 61.4696 24.6864 61.2765 24.3364C61.0834 23.9864 60.8036 23.6919 60.464 23.4811C60.1243 23.2703 59.7363 23.1503 59.3369 23.1325C58.9376 23.1148 58.5404 23.2 58.1834 23.3799L51.1834 26.8799C50.7951 27.0755 50.4691 27.3759 50.2424 27.7469C50.0156 28.118 49.897 28.545 49.9001 28.9799V24.0332C49.9001 22.1767 49.1626 20.3962 47.8498 19.0835C46.5371 17.7707 44.7566 17.0332 42.9001 17.0332H17.2334Z" fill="white"/>
</svg>
