<svg width="71" height="71" viewBox="0 0 71 71" fill="none" xmlns="http://www.w3.org/2000/svg">
<path fill-rule="evenodd" clip-rule="evenodd" d="M53.0399 12.4688C51.9134 12.468 50.8034 12.7391 49.8041 13.2591C48.8048 13.779 47.9458 14.5325 47.2999 15.4554C46.2321 16.9834 44.7153 18.1414 42.9599 18.7688L22.1932 26.1888C21.9634 26.2664 21.7635 26.4137 21.6213 26.6103C21.4791 26.8068 21.4017 27.0428 21.3999 27.2854V50.8288C21.405 52.3849 21.9285 53.8951 22.8877 55.1205C23.8469 56.3459 25.1871 57.2168 26.6966 57.5954L28.1432 57.9688C31.8066 58.9021 35.4932 56.6621 36.4266 53.0221C36.5014 52.7263 36.6384 52.4498 36.8286 52.2111C37.0187 51.9724 37.2575 51.777 37.5291 51.6379C37.8007 51.4988 38.0988 51.4192 38.4036 51.4044C38.7083 51.3896 39.0128 51.4399 39.2966 51.5521L44.8032 53.7454C45.7832 54.3754 46.6466 55.1921 47.2999 56.1487C47.9458 57.0717 48.8048 57.8251 49.8041 58.3451C50.8034 58.8651 51.9134 59.1362 53.0399 59.1354H55.2332C57.1699 59.1354 58.7332 57.5721 58.7332 55.6354V15.9688C58.7332 14.0321 57.1699 12.4688 55.2332 12.4688H53.0399ZM33.1366 49.3354L26.0666 46.7688V50.8054C26.067 51.3265 26.2418 51.8325 26.5632 52.2427C26.8846 52.6529 27.334 52.9437 27.8399 53.0687L29.2866 53.4187C30.4532 53.7221 31.6199 53.0221 31.8999 51.8554C32.1332 50.8987 32.5766 50.0354 33.1366 49.2888V49.3354Z" fill="white"/>
<path d="M12.0664 31.1354C12.0664 28.5688 14.1664 26.4688 16.7331 26.4688H17.8997C18.5531 26.4688 19.0664 26.9821 19.0664 27.6354V43.9688C19.0664 44.2782 18.9435 44.5749 18.7247 44.7937C18.5059 45.0125 18.2092 45.1354 17.8997 45.1354H16.7331C15.4954 45.1354 14.3084 44.6438 13.4332 43.7686C12.5581 42.8934 12.0664 41.7064 12.0664 40.4688V31.1354Z" fill="white"/>
</svg>
