<svg width="71" height="71" viewBox="0 0 71 71" fill="none" xmlns="http://www.w3.org/2000/svg">
<g clip-path="url(#clip0_1_216)">
<path fill-rule="evenodd" clip-rule="evenodd" d="M51.0672 61.5664C53.1206 61.5664 55.0339 60.9831 56.6672 59.9564L59.9339 63.2231C60.3829 63.6024 60.9586 63.7983 61.5458 63.7715C62.133 63.7447 62.6885 63.4973 63.1012 63.0788C63.5139 62.6602 63.7534 62.1013 63.7718 61.5137C63.7902 60.9262 63.5862 60.3534 63.2006 59.9098L59.9572 56.6431C61.1937 54.6705 61.7395 52.343 61.5089 50.0265C61.2784 47.7099 60.2844 45.5356 58.6835 43.8455C57.0825 42.1554 54.9652 41.0453 52.6645 40.6897C50.3638 40.334 48.0102 40.7531 45.9736 41.881C43.937 43.0088 42.333 44.7815 41.4138 46.9204C40.4945 49.0592 40.3122 51.4429 40.8953 53.6967C41.4785 55.9505 42.7941 57.9466 44.6354 59.3711C46.4767 60.7957 48.7392 61.5679 51.0672 61.5664ZM51.0672 56.8998C52.6143 56.8998 54.0981 56.2852 55.192 55.1912C56.286 54.0972 56.9006 52.6135 56.9006 51.0664C56.9006 49.5193 56.286 48.0356 55.192 46.9416C54.0981 45.8477 52.6143 45.2331 51.0672 45.2331C49.5201 45.2331 48.0364 45.8477 46.9424 46.9416C45.8485 48.0356 45.2339 49.5193 45.2339 51.0664C45.2339 52.6135 45.8485 54.0972 46.9424 55.1912C48.0364 56.2852 49.5201 56.8998 51.0672 56.8998Z" fill="white"/>
<path d="M14.9007 14.9004C14.2819 14.9004 13.6884 15.1462 13.2508 15.5838C12.8132 16.0214 12.5674 16.6149 12.5674 17.2337C12.5674 17.8526 12.8132 18.4461 13.2508 18.8836C13.6884 19.3212 14.2819 19.5671 14.9007 19.5671H56.9007C57.5196 19.5671 58.113 19.3212 58.5506 18.8836C58.9882 18.4461 59.234 17.8526 59.234 17.2337C59.234 16.6149 58.9882 16.0214 58.5506 15.5838C58.113 15.1462 57.5196 14.9004 56.9007 14.9004H14.9007ZM12.5674 26.5671C12.5674 25.9482 12.8132 25.3547 13.2508 24.9171C13.6884 24.4796 14.2819 24.2337 14.9007 24.2337H56.9007C57.5196 24.2337 58.113 24.4796 58.5506 24.9171C58.9882 25.3547 59.234 25.9482 59.234 26.5671C59.234 27.1859 58.9882 27.7794 58.5506 28.217C58.113 28.6546 57.5196 28.9004 56.9007 28.9004H14.9007C14.2819 28.9004 13.6884 28.6546 13.2508 28.217C12.8132 27.7794 12.5674 27.1859 12.5674 26.5671ZM14.9007 33.5671C14.2819 33.5671 13.6884 33.8129 13.2508 34.2505C12.8132 34.6881 12.5674 35.2816 12.5674 35.9004C12.5674 36.5192 12.8132 37.1127 13.2508 37.5503C13.6884 37.9879 14.2819 38.2337 14.9007 38.2337H40.5674C41.1862 38.2337 41.7797 37.9879 42.2173 37.5503C42.6549 37.1127 42.9007 36.5192 42.9007 35.9004C42.9007 35.2816 42.6549 34.6881 42.2173 34.2505C41.7797 33.8129 41.1862 33.5671 40.5674 33.5671H14.9007ZM12.5674 45.2337C12.5674 44.6149 12.8132 44.0214 13.2508 43.5838C13.6884 43.1462 14.2819 42.9004 14.9007 42.9004H33.5674C34.1862 42.9004 34.7797 43.1462 35.2173 43.5838C35.6549 44.0214 35.9007 44.6149 35.9007 45.2337C35.9007 45.8526 35.6549 46.4461 35.2173 46.8836C34.7797 47.3212 34.1862 47.5671 33.5674 47.5671H14.9007C14.2819 47.5671 13.6884 47.3212 13.2508 46.8836C12.8132 46.4461 12.5674 45.8526 12.5674 45.2337ZM14.9007 52.2337C14.2819 52.2337 13.6884 52.4796 13.2508 52.9171C12.8132 53.3547 12.5674 53.9482 12.5674 54.5671C12.5674 55.1859 12.8132 55.7794 13.2508 56.217C13.6884 56.6546 14.2819 56.9004 14.9007 56.9004H33.5674C34.1862 56.9004 34.7797 56.6546 35.2173 56.217C35.6549 55.7794 35.9007 55.1859 35.9007 54.5671C35.9007 53.9482 35.6549 53.3547 35.2173 52.9171C34.7797 52.4796 34.1862 52.2337 33.5674 52.2337H14.9007Z" fill="white"/>
</g>
<defs>
<clipPath id="clip0_1_216">
<rect width="56" height="56" fill="white" transform="translate(7.90039 7.90039)"/>
</clipPath>
</defs>
</svg>
