<svg width="71" height="71" viewBox="0 0 71 71" fill="none" xmlns="http://www.w3.org/2000/svg">
<path d="M48.9003 30.3312C49.2373 29.8819 49.4009 29.3261 49.3611 28.7658C49.3212 28.2056 49.0807 27.6785 48.6835 27.2813C48.2864 26.8842 47.7593 26.6436 47.199 26.6038C46.6387 26.564 46.0829 26.7276 45.6336 27.0646L30.9336 41.7179L25.5669 36.3513C25.1179 35.9719 24.5422 35.7761 23.955 35.8028C23.3678 35.8296 22.8123 36.077 22.3996 36.4956C21.987 36.9142 21.7475 37.4731 21.729 38.0606C21.7106 38.6481 21.9146 39.221 22.3003 39.6646L29.3003 46.6646C29.7364 47.0921 30.3228 47.3316 30.9336 47.3316C31.5444 47.3316 32.1308 47.0921 32.5669 46.6646L48.9003 30.3312Z" fill="white"/>
<path fill-rule="evenodd" clip-rule="evenodd" d="M35.6003 61.3646C42.4075 61.3646 48.9359 58.6604 53.7493 53.847C58.5628 49.0336 61.2669 42.5051 61.2669 35.6979C61.2669 28.8907 58.5628 22.3623 53.7493 17.5488C48.9359 12.7354 42.4075 10.0313 35.6003 10.0312C28.793 10.0313 22.2646 12.7354 17.4512 17.5488C12.6378 22.3623 9.93359 28.8907 9.93359 35.6979C9.93359 42.5051 12.6378 49.0336 17.4512 53.847C22.2646 58.6604 28.793 61.3646 35.6003 61.3646ZM49.3611 28.7658C49.4009 29.3261 49.2373 29.8819 48.9003 30.3312L32.5669 46.6646C32.1308 47.0921 31.5444 47.3316 30.9336 47.3316C30.3228 47.3316 29.7364 47.0921 29.3003 46.6646L22.3003 39.6646C21.9146 39.221 21.7106 38.6481 21.729 38.0606C21.7475 37.4731 21.987 36.9142 22.3996 36.4956C22.8123 36.077 23.3678 35.8296 23.955 35.8028C24.5422 35.7761 25.1179 35.9719 25.5669 36.3513L30.9336 41.7179L45.6336 27.0646C46.0829 26.7276 46.6387 26.564 47.199 26.6038C47.7593 26.6436 48.2864 26.8842 48.6835 27.2813C49.0807 27.6785 49.3212 28.2056 49.3611 28.7658Z" fill="#559856"/>
</svg>
