<svg width="71" height="71" viewBox="0 0 71 71" fill="none" xmlns="http://www.w3.org/2000/svg">
<path d="M35.2995 14.9008C32.3437 14.899 29.4209 15.5211 26.7221 16.7265C24.0233 17.9319 21.6093 19.6934 19.6381 21.8959C17.6669 24.0983 16.1828 26.6921 15.283 29.5076C14.3831 32.323 14.0877 35.2967 14.4162 38.2342H18.7795C20.6563 38.232 22.5059 38.6827 24.1713 39.5479C25.8368 40.4131 27.2689 41.6674 28.3462 43.2042L31.5428 47.8008C32.4597 49.1085 32.918 50.6829 32.8462 52.2784C32.7745 53.8739 32.1767 55.4007 31.1462 56.6208C30.1805 57.8254 28.8259 58.6565 27.3145 58.9715C25.8032 59.2866 24.2293 59.066 22.8628 58.3475C17.8862 55.5909 13.9664 51.2589 11.7195 46.0323C9.47255 40.8057 9.02579 34.9806 10.4494 29.4725C11.873 23.9644 15.0863 19.0853 19.5844 15.602C24.0825 12.1187 29.6104 10.2285 35.2995 10.2285C40.9886 10.2285 46.5165 12.1187 51.0146 15.602C55.5127 19.0853 58.726 23.9644 60.1496 29.4725C61.5732 34.9806 61.1264 40.8057 58.8795 46.0323C56.6326 51.2589 52.7128 55.5909 47.7362 58.3475C44.7728 60.0042 41.3662 58.8842 39.4528 56.6208C38.4223 55.4007 37.8245 53.8739 37.7527 52.2784C37.681 50.6829 38.1393 49.1085 39.0562 47.8008L42.2762 43.2042C43.3534 41.6674 44.7856 40.4131 46.451 39.5479C48.1164 38.6827 49.966 38.232 51.8428 38.2342H56.1828C56.5112 35.2967 56.2159 32.323 55.316 29.5076C54.4161 26.6921 52.9321 24.0983 50.9609 21.8959C48.9897 19.6934 46.5757 17.9319 43.8769 16.7265C41.1781 15.5211 38.2553 14.899 35.2995 14.9008Z" fill="white"/>
</svg>
