<svg width="71" height="71" viewBox="0 0 71 71" fill="none" xmlns="http://www.w3.org/2000/svg">
<path d="M60.167 14.201C60.504 13.7517 60.6676 13.1959 60.6278 12.6356C60.5879 12.0754 60.3474 11.5483 59.9502 11.1511C59.5531 10.7539 59.026 10.5134 58.4657 10.4736C57.9054 10.4337 57.3496 10.5973 56.9003 10.9343L10.2336 57.601C9.96619 57.8016 9.74497 58.0573 9.58495 58.3508C9.42494 58.6443 9.32986 58.9688 9.30616 59.3023C9.28247 59.6357 9.3307 59.9704 9.44759 60.2836C9.56449 60.5968 9.74732 60.8812 9.98371 61.1176C10.2201 61.354 10.5045 61.5368 10.8177 61.6537C11.1309 61.7706 11.4656 61.8188 11.799 61.7951C12.1325 61.7714 12.457 61.6764 12.7505 61.5163C13.044 61.3563 13.2997 61.1351 13.5003 60.8677L60.167 14.201ZM47.007 14.761C47.1344 14.6379 47.2307 14.4864 47.2882 14.3188C47.3457 14.1513 47.3626 13.9725 47.3375 13.7971C47.3125 13.6218 47.2462 13.4549 47.1441 13.3101C47.042 13.1653 46.9071 13.0468 46.7503 12.9643C41.9284 10.5387 36.4644 9.6949 31.1354 10.553C25.8064 11.4111 20.8835 13.9274 17.0668 17.7442C13.2501 21.5609 10.7337 26.4838 9.87563 31.8128C9.01751 37.1418 9.86128 42.6058 12.287 47.4277C12.6136 48.1277 13.5236 48.2443 14.0603 47.7077L21.527 40.241C22.1103 39.6577 21.877 38.6543 21.0603 38.4677C20.277 38.3086 19.4795 38.2304 18.6803 38.2343H14.317C13.9034 34.5468 14.4744 30.8155 15.9717 27.4203C17.469 24.0251 19.8391 21.0873 22.8409 18.9059C25.8427 16.7245 29.3689 15.3775 33.0605 15.0019C36.7521 14.6263 40.4774 15.2356 43.857 16.7677C44.3236 16.9777 44.8836 16.8843 45.2336 16.5343L47.007 14.761ZM54.3336 27.221C54.2313 26.9983 54.1987 26.7497 54.2404 26.5082C54.2821 26.2666 54.3959 26.0433 54.567 25.8677L56.3403 24.0943C56.4634 23.967 56.6149 23.8706 56.7825 23.8131C56.95 23.7556 57.1288 23.7387 57.3042 23.7638C57.4795 23.7888 57.6465 23.8551 57.7912 23.9572C57.936 24.0593 58.0545 24.1943 58.137 24.351C61.1191 30.2763 61.6914 37.126 59.7339 43.4641C57.7764 49.8021 53.4411 55.1361 47.637 58.3477C44.6736 60.0043 41.267 58.8843 39.3536 56.621C38.3231 55.4009 37.7253 53.874 37.6535 52.2786C37.5818 50.6831 38.0401 49.1087 38.957 47.801L42.177 43.2043C43.2542 41.6675 44.6864 40.4133 46.3518 39.5481C48.0172 38.6829 49.8668 38.2322 51.7436 38.2343H56.0836C56.4919 34.4729 55.8878 30.6706 54.3336 27.221ZM30.767 49.6677C31.3503 49.0843 32.2836 49.2477 32.4936 49.9943C32.8125 51.133 32.8474 52.3325 32.5952 53.4878C32.343 54.643 31.8114 55.7188 31.047 56.621C30.0813 57.8256 28.7267 58.6567 27.2153 58.9717C25.704 59.2867 24.1301 59.0661 22.7636 58.3477C22.7136 58.3204 22.6704 58.2819 22.6375 58.2353C22.6046 58.1888 22.5828 58.1352 22.5738 58.0789C22.5648 58.0226 22.5688 57.965 22.5855 57.9104C22.6022 57.8559 22.6312 57.8059 22.6703 57.7643L30.7903 49.6443L30.767 49.6677Z" fill="#F23F42"/>
</svg>
