<svg width="71" height="71" viewBox="0 0 71 71" fill="none" xmlns="http://www.w3.org/2000/svg">
<path d="M39.8733 20.4392L50.5599 31.1259C50.7768 31.3446 51.0349 31.5181 51.3192 31.6366C51.6036 31.7551 51.9086 31.8161 52.2166 31.8161C52.5246 31.8161 52.8296 31.7551 53.1139 31.6366C53.3983 31.5181 53.6563 31.3446 53.8732 31.1259L57.0933 27.9059C57.9624 27.0315 58.4503 25.8487 58.4503 24.6159C58.4503 23.383 57.9624 22.2002 57.0933 21.3259L49.6733 13.9059C48.7989 13.0367 47.6161 12.5488 46.3833 12.5488C45.1504 12.5488 43.9676 13.0367 43.0933 13.9059L39.8733 17.1259C39.6546 17.3428 39.481 17.6008 39.3625 17.8852C39.244 18.1695 39.1831 18.4745 39.1831 18.7825C39.1831 19.0906 39.244 19.3955 39.3625 19.6799C39.481 19.9642 39.6546 20.2223 39.8733 20.4392ZM12.2232 54.7392L13.9266 44.8925C14.1697 43.4707 14.846 42.1586 15.8632 41.1359L34.2266 22.7725C34.4435 22.5538 34.7016 22.3802 34.9859 22.2618C35.2702 22.1433 35.5752 22.0823 35.8833 22.0823C36.1913 22.0823 36.4963 22.1433 36.7806 22.2618C37.0649 22.3802 37.323 22.5538 37.5399 22.7725L48.2266 33.4592C48.4453 33.6761 48.6189 33.9342 48.7373 34.2185C48.8558 34.5029 48.9168 34.8078 48.9168 35.1159C48.9168 35.4239 48.8558 35.7289 48.7373 36.0132C48.6189 36.2975 48.4453 36.5556 48.2266 36.7725L29.8632 55.1359C28.8467 56.1488 27.5435 56.8249 26.1299 57.0725L16.2599 58.7759C15.7089 58.8695 15.1434 58.8297 14.6109 58.66C14.0783 58.4902 13.5942 58.1954 13.199 57.8002C12.8037 57.4049 12.5089 56.9208 12.3391 56.3882C12.1694 55.8557 12.1297 55.2902 12.2232 54.7392Z" fill="white"/>
</svg>
