<svg width="71" height="70" viewBox="0 0 71 70" fill="none" xmlns="http://www.w3.org/2000/svg">
<path d="M12.167 18.666C12.167 16.8095 12.9045 15.029 14.2172 13.7163C15.53 12.4035 17.3105 11.666 19.167 11.666H28.337C29.1056 11.67 29.8614 11.8638 30.5371 12.2301C31.2128 12.5965 31.7876 13.1241 32.2103 13.766L35.5003 18.666H51.8337C53.6902 18.666 55.4706 19.4035 56.7834 20.7163C58.0962 22.029 58.8337 23.8095 58.8337 25.666V51.3327C58.8337 53.1892 58.0962 54.9697 56.7834 56.2824C55.4706 57.5952 53.6902 58.3327 51.8337 58.3327H19.167C17.3105 58.3327 15.53 57.5952 14.2172 56.2824C12.9045 54.9697 12.167 53.1892 12.167 51.3327V18.666Z" fill="white"/>
</svg>
