<svg width="71" height="70" viewBox="0 0 71 70" fill="none" xmlns="http://www.w3.org/2000/svg">
<path fill-rule="evenodd" clip-rule="evenodd" d="M18.7666 11.666C16.9101 11.666 15.1296 12.4035 13.8169 13.7163C12.5041 15.029 11.7666 16.8095 11.7666 18.666V51.3327C11.7666 53.1892 12.5041 54.9697 13.8169 56.2824C15.1296 57.5952 16.9101 58.3327 18.7666 58.3327H51.4333C53.2898 58.3327 55.0703 57.5952 56.383 56.2824C57.6958 54.9697 58.4333 53.1892 58.4333 51.3327V18.666C58.4333 16.8095 57.6958 15.029 56.383 13.7163C55.0703 12.4035 53.2898 11.666 51.4333 11.666H18.7666ZM16.4333 19.8327C16.4333 17.896 17.9966 16.3327 19.9333 16.3327H50.2666C52.2033 16.3327 53.7666 17.896 53.7666 19.8327V33.8327C53.7666 35.7693 52.2033 37.3327 50.2666 37.3327H44.0833C42.9166 37.3327 42.0999 38.4993 42.0999 39.666C42.0999 41.5225 41.3624 43.303 40.0497 44.6158C38.7369 45.9285 36.9564 46.666 35.0999 46.666C33.2434 46.666 31.4629 45.9285 30.1502 44.6158C28.8374 43.303 28.0999 41.5225 28.0999 39.666C28.0999 38.4993 27.2833 37.3327 26.1166 37.3327H19.9333C19.005 37.3327 18.1148 36.9639 17.4584 36.3076C16.802 35.6512 16.4333 34.7609 16.4333 33.8327V19.8327Z" fill="white"/>
</svg>
