<svg width="71" height="71" viewBox="0 0 71 71" fill="none" xmlns="http://www.w3.org/2000/svg">
<path d="M24.0526 16.7161C19.9008 19.469 16.7604 23.5012 15.1079 28.2007C13.4555 32.9003 13.3813 38.0106 14.8966 42.7561C15.3166 44.1421 15.2746 45.6121 14.4766 46.7881L10.9906 52.3321C10.5838 52.9662 10.355 53.698 10.3283 54.4509C10.3015 55.2037 10.4777 55.9499 10.8384 56.6113C11.1992 57.2727 11.7312 57.8248 12.3786 58.2099C13.0261 58.595 13.7653 58.7989 14.5186 58.8001H37.6186C43.8424 58.89 49.848 56.5092 54.3196 52.1793C58.7912 47.8494 61.3641 41.9235 61.4746 35.7001C61.3641 29.4767 58.7912 23.5508 54.3196 19.2209C49.848 14.891 43.8424 12.5102 37.6186 12.6001C32.5786 12.6001 27.8746 14.1121 24.0526 16.7161Z" fill="white"/>
</svg>
