<svg width="71" height="71" viewBox="0 0 71 71" fill="none" xmlns="http://www.w3.org/2000/svg">
<path fill-rule="evenodd" clip-rule="evenodd" d="M17.133 40.5677C18.3707 40.5677 19.5576 40.076 20.4328 39.2009C21.308 38.3257 21.7996 37.1387 21.7996 35.901C21.7996 34.6634 21.308 33.4764 20.4328 32.6012C19.5576 31.726 18.3707 31.2344 17.133 31.2344C15.8953 31.2344 14.7083 31.726 13.8331 32.6012C12.958 33.4764 12.4663 34.6634 12.4663 35.901C12.4663 37.1387 12.958 38.3257 13.8331 39.2009C14.7083 40.076 15.8953 40.5677 17.133 40.5677ZM40.4663 35.901C40.4663 37.1387 39.9746 38.3257 39.0995 39.2009C38.2243 40.076 37.0373 40.5677 35.7996 40.5677C34.562 40.5677 33.375 40.076 32.4998 39.2009C31.6246 38.3257 31.133 37.1387 31.133 35.901C31.133 34.6634 31.6246 33.4764 32.4998 32.6012C33.375 31.726 34.562 31.2344 35.7996 31.2344C37.0373 31.2344 38.2243 31.726 39.0995 32.6012C39.9746 33.4764 40.4663 34.6634 40.4663 35.901ZM59.133 35.901C59.133 37.1387 58.6413 38.3257 57.7661 39.2009C56.891 40.076 55.704 40.5677 54.4663 40.5677C53.2286 40.5677 52.0416 40.076 51.1665 39.2009C50.2913 38.3257 49.7996 37.1387 49.7996 35.901C49.7996 34.6634 50.2913 33.4764 51.1665 32.6012C52.0416 31.726 53.2286 31.2344 54.4663 31.2344C55.704 31.2344 56.891 31.726 57.7661 32.6012C58.6413 33.4764 59.133 34.6634 59.133 35.901Z" fill="white"/>
</svg>
