<svg width="71" height="71" viewBox="0 0 71 71" fill="none" xmlns="http://www.w3.org/2000/svg">
<path fill-rule="evenodd" clip-rule="evenodd" d="M31.2334 17.2331C31.2334 18.4707 31.7251 19.6577 32.6002 20.5329C33.4754 21.4081 34.6624 21.8997 35.9001 21.8997C37.1377 21.8997 38.3247 21.4081 39.1999 20.5329C40.0751 19.6577 40.5667 18.4707 40.5667 17.2331C40.5667 15.9954 40.0751 14.8084 39.1999 13.9332C38.3247 13.0581 37.1377 12.5664 35.9001 12.5664C34.6624 12.5664 33.4754 13.0581 32.6002 13.9332C31.7251 14.8084 31.2334 15.9954 31.2334 17.2331ZM35.9001 40.5664C34.6624 40.5664 33.4754 40.0747 32.6002 39.1996C31.7251 38.3244 31.2334 37.1374 31.2334 35.8997C31.2334 34.6621 31.7251 33.4751 32.6002 32.5999C33.4754 31.7247 34.6624 31.2331 35.9001 31.2331C37.1377 31.2331 38.3247 31.7247 39.1999 32.5999C40.0751 33.4751 40.5667 34.6621 40.5667 35.8997C40.5667 37.1374 40.0751 38.3244 39.1999 39.1996C38.3247 40.0747 37.1377 40.5664 35.9001 40.5664ZM35.9001 59.2331C34.6624 59.2331 33.4754 58.7414 32.6002 57.8662C31.7251 56.9911 31.2334 55.8041 31.2334 54.5664C31.2334 53.3287 31.7251 52.1417 32.6002 51.2666C33.4754 50.3914 34.6624 49.8997 35.9001 49.8997C37.1377 49.8997 38.3247 50.3914 39.1999 51.2666C40.0751 52.1417 40.5667 53.3287 40.5667 54.5664C40.5667 55.8041 40.0751 56.9911 39.1999 57.8662C38.3247 58.7414 37.1377 59.2331 35.9001 59.2331Z" fill="white"/>
</svg>
