<svg width="71" height="70" viewBox="0 0 71 70" fill="none" xmlns="http://www.w3.org/2000/svg">
<path d="M42.2004 39.6654C43.438 39.6654 44.625 39.1737 45.5002 38.2985C46.3754 37.4234 46.867 36.2364 46.867 34.9987C46.867 33.761 46.3754 32.574 45.5002 31.6989C44.625 30.8237 43.438 30.332 42.2004 30.332C40.9627 30.332 39.7757 30.8237 38.9005 31.6989C38.0254 32.574 37.5337 33.761 37.5337 34.9987C37.5337 36.2364 38.0254 37.4234 38.9005 38.2985C39.7757 39.1737 40.9627 39.6654 42.2004 39.6654Z" fill="white"/>
<path fill-rule="evenodd" clip-rule="evenodd" d="M23.5335 16.332C22.9147 16.332 22.3212 16.5779 21.8836 17.0154C21.446 17.453 21.2002 18.0465 21.2002 18.6654C21.2002 19.2842 21.446 19.8777 21.8836 20.3153C22.3212 20.7529 22.9147 20.9987 23.5335 20.9987H30.5335C31.1524 20.9987 31.7459 21.2445 32.1834 21.6821C32.621 22.1197 32.8669 22.7132 32.8669 23.332C32.8669 23.9509 32.621 24.5444 32.1834 24.9819C31.7459 25.4195 31.1524 25.6654 30.5335 25.6654H20.0335C19.4147 25.6654 18.8212 25.9112 18.3836 26.3488C17.946 26.7864 17.7002 27.3799 17.7002 27.9987C17.7002 28.6175 17.946 29.211 18.3836 29.6486C18.8212 30.0862 19.4147 30.332 20.0335 30.332H25.8669C26.4857 30.332 27.0792 30.5779 27.5168 31.0154C27.9544 31.453 28.2002 32.0465 28.2002 32.6654C28.2002 33.2842 27.9544 33.8777 27.5168 34.3153C27.0792 34.7529 26.4857 34.9987 25.8669 34.9987H21.2002C20.5814 34.9987 19.9879 35.2445 19.5503 35.6821C19.1127 36.1197 18.8669 36.7132 18.8669 37.332C18.8669 37.9509 19.1127 38.5444 19.5503 38.9819C19.9879 39.4195 20.5814 39.6654 21.2002 39.6654H24.1169C24.9896 43.0454 26.7926 46.113 29.3212 48.5198C31.8498 50.9265 35.0027 52.576 38.4217 53.2809C41.8407 53.9857 45.3888 53.7178 48.6631 52.5074C51.9375 51.2969 54.8068 49.1926 56.9452 46.4334C59.0836 43.6741 60.4055 40.3705 60.7606 36.8977C61.1157 33.4249 60.4899 29.9221 58.9543 26.7872C57.4186 23.6522 55.0347 21.0106 52.0731 19.1625C49.1115 17.3144 45.6911 16.3338 42.2002 16.332H23.5335ZM42.2002 44.332C44.6755 44.332 47.0495 43.3487 48.7999 41.5984C50.5502 39.848 51.5335 37.4741 51.5335 34.9987C51.5335 32.5233 50.5502 30.1494 48.7999 28.399C47.0495 26.6487 44.6755 25.6654 42.2002 25.6654C39.7248 25.6654 37.3509 26.6487 35.6005 28.399C33.8502 30.1494 32.8669 32.5233 32.8669 34.9987C32.8669 37.4741 33.8502 39.848 35.6005 41.5984C37.3509 43.3487 39.7248 44.332 42.2002 44.332Z" fill="white"/>
<path d="M13.0337 30.3327C13.6525 30.3327 14.246 30.0868 14.6836 29.6493C15.1212 29.2117 15.367 28.6182 15.367 27.9993C15.367 27.3805 15.1212 26.787 14.6836 26.3494C14.246 25.9118 13.6525 25.666 13.0337 25.666H11.867C11.2482 25.666 10.6547 25.9118 10.2171 26.3494C9.77952 26.787 9.53369 27.3805 9.53369 27.9993C9.53369 28.6182 9.77952 29.2117 10.2171 29.6493C10.6547 30.0868 11.2482 30.3327 11.867 30.3327H13.0337Z" fill="white"/>
</svg>
