<svg width="71" height="70" viewBox="0 0 71 70" fill="none" xmlns="http://www.w3.org/2000/svg">
<path d="M38.133 20.9993C38.133 20.3805 37.8871 19.787 37.4496 19.3494C37.012 18.9118 36.4185 18.666 35.7996 18.666C35.1808 18.666 34.5873 18.9118 34.1497 19.3494C33.7121 19.787 33.4663 20.3805 33.4663 20.9993V32.666H21.7996C21.1808 32.666 20.5873 32.9118 20.1497 33.3494C19.7121 33.787 19.4663 34.3805 19.4663 34.9993C19.4663 35.6182 19.7121 36.2117 20.1497 36.6493C20.5873 37.0869 21.1808 37.3327 21.7996 37.3327H33.4663V48.9994C33.4663 49.6182 33.7121 50.2117 34.1497 50.6493C34.5873 51.0869 35.1808 51.3327 35.7996 51.3327C36.4185 51.3327 37.012 51.0869 37.4496 50.6493C37.8871 50.2117 38.133 49.6182 38.133 48.9994V37.3327H49.7996C50.4185 37.3327 51.012 37.0869 51.4496 36.6493C51.8871 36.2117 52.133 35.6182 52.133 34.9993C52.133 34.3805 51.8871 33.787 51.4496 33.3494C51.012 32.9118 50.4185 32.666 49.7996 32.666H38.133V20.9993Z" fill="white"/>
</svg>
