<svg width="71" height="71" viewBox="0 0 71 71" fill="none" xmlns="http://www.w3.org/2000/svg">
<path d="M42.7995 12.4681C42.7995 11.8493 43.0453 11.2558 43.4829 10.8182C43.9205 10.3806 44.514 10.1348 45.1328 10.1348H59.1328C59.7517 10.1348 60.3452 10.3806 60.7828 10.8182C61.2203 11.2558 61.4662 11.8493 61.4662 12.4681V26.4681C61.4662 27.0869 61.2203 27.6804 60.7828 28.118C60.3452 28.5556 59.7517 28.8014 59.1328 28.8014C58.514 28.8014 57.9205 28.5556 57.4829 28.118C57.0453 27.6804 56.7995 27.0869 56.7995 26.4681V18.0914L46.7662 28.1248C46.5552 28.3674 46.2964 28.5639 46.006 28.7018C45.7155 28.8397 45.3997 28.916 45.0783 28.9261C44.757 28.9362 44.437 28.8797 44.1385 28.7603C43.84 28.6409 43.5694 28.4611 43.3436 28.2321C43.1179 28.0031 42.9419 27.73 42.8267 27.4298C42.7116 27.1296 42.6597 26.8089 42.6743 26.4877C42.6889 26.1665 42.7698 25.8518 42.9118 25.5634C43.0538 25.2749 43.2539 25.0189 43.4995 24.8114L53.4862 14.8014H45.1328C44.514 14.8014 43.9205 14.5556 43.4829 14.118C43.0453 13.6804 42.7995 13.0869 42.7995 12.4681Z" fill="white"/>
<path d="M19.4668 12.4668C17.6103 12.4668 15.8298 13.2043 14.517 14.517C13.2043 15.8298 12.4668 17.6103 12.4668 19.4668V52.1335C12.4668 53.99 13.2043 55.7705 14.517 57.0832C15.8298 58.396 17.6103 59.1335 19.4668 59.1335H52.1335C53.99 59.1335 55.7705 58.396 57.0832 57.0832C58.396 55.7705 59.1335 53.99 59.1335 52.1335V38.1335C59.1335 37.5146 58.8876 36.9211 58.45 36.4835C58.0125 36.046 57.419 35.8001 56.8001 35.8001C56.1813 35.8001 55.5878 36.046 55.1502 36.4835C54.7126 36.9211 54.4668 37.5146 54.4668 38.1335V52.1335C54.4668 52.7523 54.221 53.3458 53.7834 53.7834C53.3458 54.221 52.7523 54.4668 52.1335 54.4668H19.4668C18.848 54.4668 18.2545 54.221 17.8169 53.7834C17.3793 53.3458 17.1335 52.7523 17.1335 52.1335V19.4668C17.1335 18.848 17.3793 18.2545 17.8169 17.8169C18.2545 17.3793 18.848 17.1335 19.4668 17.1335H33.4668C34.0856 17.1335 34.6791 16.8876 35.1167 16.45C35.5543 16.0125 35.8001 15.419 35.8001 14.8001C35.8001 14.1813 35.5543 13.5878 35.1167 13.1502C34.6791 12.7126 34.0856 12.4668 33.4668 12.4668H19.4668Z" fill="white"/>
</svg>
