<svg width="71" height="70" viewBox="0 0 71 70" fill="none" xmlns="http://www.w3.org/2000/svg">
<path d="M14.1536 21.3205C13.9576 21.8693 14.232 22.4573 14.722 22.7709L34.8512 36.1969C35.0133 36.3065 35.2044 36.365 35.4 36.365C35.5956 36.365 35.7868 36.3065 35.9488 36.1969L56.078 22.7709C56.568 22.4573 56.8228 21.8693 56.6464 21.3205C56.2464 20.1631 55.495 19.1595 54.4971 18.4497C53.4992 17.74 52.3046 17.3595 51.08 17.3613H19.72C18.4954 17.3595 17.3008 17.74 16.3029 18.4497C15.305 19.1595 14.5536 20.1631 14.1536 21.3205Z" fill="white"/>
<path d="M56.9598 28.7276C56.9583 28.5504 56.9088 28.3769 56.8166 28.2256C56.7243 28.0743 56.5927 27.9509 56.4359 27.8684C56.279 27.7859 56.1027 27.7476 55.9258 27.7574C55.7488 27.7671 55.5779 27.8247 55.431 27.924L36.7522 40.37C35.929 40.9188 34.8706 40.9188 34.0474 40.37L15.3686 27.924C15.2218 27.8247 15.0509 27.7671 14.8739 27.7574C14.697 27.7476 14.5207 27.7859 14.3638 27.8684C14.207 27.9509 14.0754 28.0743 13.9831 28.2256C13.8909 28.3769 13.8413 28.5504 13.8398 28.7276V46.7596C13.8398 48.319 14.4593 49.8146 15.5621 50.9174C16.6648 52.0201 18.1604 52.6396 19.7198 52.6396H51.0798C52.6393 52.6396 54.1349 52.0201 55.2376 50.9174C56.3404 49.8146 56.9598 48.319 56.9598 46.7596V28.7276Z" fill="white"/>
</svg>
