<svg width="71" height="71" viewBox="0 0 71 71" fill="none" xmlns="http://www.w3.org/2000/svg">
<path fill-rule="evenodd" clip-rule="evenodd" d="M42.7 12.4668C44.5565 12.4668 46.337 13.2043 47.6498 14.517C48.9625 15.8298 49.7 17.6103 49.7 19.4668V47.4668H20.5334C19.6051 47.4668 18.7149 47.8355 18.0585 48.4919C17.4021 49.1483 17.0334 50.0385 17.0334 50.9668C17.0334 51.8951 17.4021 52.7853 18.0585 53.4417C18.7149 54.098 19.6051 54.4668 20.5334 54.4668H53.2C53.5094 54.4668 53.8062 54.3439 54.025 54.1251C54.2438 53.9063 54.3667 53.6095 54.3667 53.3001V19.4668H56.7C57.3189 19.4668 57.9124 19.7126 58.3499 20.1502C58.7875 20.5878 59.0334 21.1813 59.0334 21.8001V56.8001C59.0334 57.419 58.7875 58.0125 58.3499 58.45C57.9124 58.8876 57.3189 59.1335 56.7 59.1335H19.3667C17.5102 59.1335 15.7297 58.396 14.417 57.0832C13.1042 55.7705 12.3667 53.99 12.3667 52.1335V19.4668C12.3667 17.6103 13.1042 15.8298 14.417 14.517C15.7297 13.2043 17.5102 12.4668 19.3667 12.4668H42.7ZM42 25.7668C42.337 25.3175 42.5006 24.7616 42.4608 24.2014C42.421 23.6411 42.1804 23.114 41.7833 22.7169C41.3861 22.3197 40.859 22.0791 40.2988 22.0393C39.7385 21.9995 39.1827 22.1631 38.7334 22.5001L28.7 32.4868L23.3334 27.1201C22.8843 26.7408 22.3087 26.545 21.7214 26.5717C21.1342 26.5985 20.5788 26.8459 20.1661 27.2645C19.7534 27.683 19.5139 28.242 19.4955 28.8295C19.477 29.417 19.6811 29.9898 20.0667 30.4335L27.0667 37.4335C27.5029 37.861 28.0893 38.1005 28.7 38.1005C29.3108 38.1005 29.8972 37.861 30.3334 37.4335L42 25.7668Z" fill="white"/>
</svg>
