<svg width="71" height="71" viewBox="0 0 71 71" fill="none" xmlns="http://www.w3.org/2000/svg">
<path d="M35.5999 14.8021C35.5999 14.1833 35.3541 13.5898 34.9165 13.1522C34.4789 12.7146 33.8854 12.4688 33.2666 12.4688H33.1266C32.8027 12.4666 32.482 12.5319 32.1847 12.6604C31.8874 12.789 31.6202 12.978 31.3999 13.2155L21.4133 24.1355H14.5999C13.9811 24.1355 13.3876 24.3813 12.95 24.8189C12.5124 25.2565 12.2666 25.85 12.2666 26.4688V45.1355C12.2666 45.7543 12.5124 46.3478 12.95 46.7854C13.3876 47.223 13.9811 47.4688 14.5999 47.4688H21.4133L31.3999 58.3888C31.6202 58.6263 31.8874 58.8153 32.1847 58.9439C32.482 59.0724 32.8027 59.1377 33.1266 59.1355H33.2666C33.8854 59.1355 34.4789 58.8896 34.9165 58.4521C35.3541 58.0145 35.5999 57.421 35.5999 56.8021V14.8021ZM42.8333 56.2188C41.4799 56.5455 40.2666 55.4488 40.2666 54.0721V54.0021C40.2666 52.8355 41.1299 51.8555 42.2499 51.5521C45.7002 50.6044 48.7437 48.55 50.913 45.7046C53.0823 42.8592 54.2572 39.3801 54.2572 35.8021C54.2572 32.2241 53.0823 28.7451 50.913 25.8997C48.7437 23.0542 45.7002 20.9998 42.2499 20.0521C41.6959 19.9188 41.2012 19.6065 40.8426 19.1636C40.4841 18.7207 40.2816 18.1718 40.2666 17.6021V17.5321C40.2666 16.1321 41.4799 15.0588 42.8333 15.3855C47.417 16.489 51.4961 19.1029 54.4138 22.8064C57.3315 26.5098 58.918 31.0874 58.918 35.8021C58.918 40.5169 57.3315 45.0944 54.4138 48.7979C51.4961 52.5014 47.417 55.1153 42.8333 56.2188Z" fill="white"/>
<path d="M42.9733 46.324C41.6433 46.9774 40.2666 45.8574 40.2666 44.3874V44.0607C40.2666 43.0574 40.9199 42.194 41.7366 41.6807C42.719 41.0461 43.5268 40.1755 44.0861 39.1483C44.6455 38.1212 44.9385 36.9702 44.9385 35.8007C44.9385 34.6311 44.6455 33.4802 44.0861 32.4531C43.5268 31.4259 42.719 30.5553 41.7366 29.9207C40.9199 29.384 40.2666 28.5207 40.2666 27.5407V27.214C40.2666 25.744 41.6433 24.6474 42.9733 25.2774C44.9584 26.2275 46.6343 27.7198 47.8074 29.5819C48.9805 31.444 49.603 33.5999 49.603 35.8007C49.603 38.0015 48.9805 40.1574 47.8074 42.0195C46.6343 43.8816 44.9584 45.3739 42.9733 46.324Z" fill="white"/>
</svg>
